<!DOCTYPE svg PUBLIC "-//W3C//DTD SVG 20010904//EN" "http://www.w3.org/TR/2001/REC-SVG-20010904/DTD/svg10.dtd">
<svg version="1.0" xmlns="http://www.w3.org/2000/svg" width="512px" height="512px" viewBox="0 0 5120 5120" preserveAspectRatio="xMidYMid meet">
<g id="layer101" fill="#000000" stroke="none">
</g>
<g id="layer102" fill="#638a3f" stroke="none">
<path d="M2310 5107 c-32 -16 -51 -54 -45 -92 5 -33 12 -147 20 -335 3 -69 8 -134 10 -145 3 -14 -12 -39 -51 -80 -30 -33 -105 -115 -166 -182 -61 -68 -117 -123 -124 -123 -7 0 -19 6 -26 13 -16 16 -86 37 -121 37 -17 0 -28 -7 -32 -20 -4 -11 -20 -27 -36 -35 -16 -9 -29 -22 -29 -30 0 -8 -7 -15 -15 -15 -8 0 -28 -18 -43 -40 -17 -25 -35 -39 -49 -40 -12 0 -34 -13 -50 -28 -15 -16 -36 -31 -47 -35 -12 -5 -17 -14 -13 -27 3 -12 -1 -21 -12 -24 -9 -2 -68 -16 -133 -31 -114 -27 -117 -27 -142 -9 -37 27 -41 54 -16 108 16 33 21 56 16 79 -5 25 1 47 29 102 41 81 40 107 -6 98 -25 -5 -29 -2 -29 16 0 12 -6 21 -15 21 -8 0 -21 14 -30 30 -17 33 -30 38 -39 14 -4 -11 -13 -14 -31 -10 -22 6 -25 3 -25 -18 0 -14 -5 -28 -11 -32 -8 -5 -6 -10 5 -16 27 -15 18 -28 -19 -28 -22 0 -38 6 -44 18 -9 15 -10 16 -11 0 0 -22 -40 -35 -51 -17 -9 15 14 39 38 39 21 0 16 67 -7 90 -23 23 -33 24 -61 10 -13 -8 -19 -21 -19 -45 0 -35 -12 -43 -37 -27 -6 4 -13 28 -15 52 -3 41 -6 45 -30 48 -24 3 -30 -2 -44 -38 -9 -22 -25 -46 -35 -54 -10 -7 -32 -31 -49 -54 -44 -61 -77 -55 -142 26 -11 14 -29 22 -48 22 -27 0 -30 -3 -30 -29 0 -17 -4 -32 -10 -36 -5 -3 -7 -12 -4 -19 4 -10 -8 -16 -45 -21 -61 -8 -70 -19 -42 -49 23 -25 27 -46 10 -63 -14 -14 23 -53 51 -53 25 0 27 -45 4 -79 -15 -20 -23 -23 -62 -18 -25 3 -51 12 -58 21 -6 9 -26 21 -44 28 -28 9 -35 8 -46 -6 -6 -10 -25 -21 -40 -25 -38 -10 -43 -31 -7 -31 54 0 73 -4 73 -17 0 -6 -5 -15 -11 -19 -6 -3 -8 -17 -5 -29 8 -32 -2 -55 -25 -55 -20 0 -23 4 -33 53 -8 34 -19 35 -34 2 -6 -14 -18 -25 -27 -25 -17 0 -20 -16 -5 -25 20 -12 -2 -37 -29 -32 -35 7 -61 -9 -61 -36 0 -31 19 -50 37 -36 18 16 60 3 68 -21 8 -25 -1 -41 -20 -34 -20 8 -77 -50 -69 -70 3 -9 18 -19 32 -23 14 -3 63 -28 108 -56 46 -27 95 -50 109 -51 30 -1 30 -29 0 -35 -11 -2 -30 -14 -42 -28 l-23 -24 24 -9 c13 -4 41 -29 63 -55 l39 -46 45 10 c63 15 76 14 82 -9 3 -11 17 -25 32 -32 23 -10 29 -10 40 5 15 20 38 22 53 4 8 -10 5 -26 -14 -63 -31 -61 -57 -70 -95 -32 -20 21 -37 28 -65 28 l-37 0 7 -40 c5 -31 2 -44 -12 -58 -22 -22 -22 -109 -1 -123 8 -5 10 -9 5 -9 -5 0 -1 -9 8 -19 10 -11 15 -25 11 -30 -12 -20 -52 -12 -69 14 -9 14 -23 25 -31 25 -9 0 -15 9 -15 23 0 44 -33 58 -82 35 -25 -12 -26 -17 -21 -55 5 -40 4 -42 -23 -45 -23 -2 -30 -9 -32 -30 -3 -22 -9 -27 -40 -33 -63 -10 -65 -13 -67 -123 l-1 -100 53 -26 c51 -25 53 -28 53 -65 0 -49 15 -60 39 -30 21 26 41 18 41 -16 0 -13 5 -27 10 -30 6 -3 10 -16 10 -28 0 -12 9 -28 20 -35 11 -7 20 -23 20 -36 0 -21 5 -25 38 -28 29 -2 37 -7 37 -23 0 -39 14 -47 64 -40 25 4 52 12 60 18 22 19 113 18 126 0 17 -22 94 -12 135 17 32 23 33 23 46 5 35 -47 3 -105 -58 -105 -21 0 -28 -5 -28 -19 0 -10 6 -24 14 -30 23 -19 27 -58 11 -98 -19 -46 -7 -62 54 -70 47 -6 81 -43 81 -87 0 -23 -3 -25 -28 -20 -42 8 -69 -23 -63 -72 1 -13 -18 -19 -92 -29 -41 -6 -47 -10 -47 -31 0 -13 -8 -39 -17 -58 -13 -29 -14 -40 -5 -61 16 -34 15 -91 -2 -137 l-14 -38 74 -35 c89 -43 100 -60 84 -123 -10 -41 -9 -48 6 -59 15 -11 21 -10 39 7 12 11 29 20 38 20 22 0 47 -38 47 -73 0 -15 7 -30 15 -33 11 -5 13 -16 9 -43 -5 -33 -3 -37 28 -51 26 -12 34 -22 38 -50 5 -33 7 -35 45 -36 22 -1 46 -2 53 -3 7 -1 12 -16 12 -39 0 -46 14 -62 55 -62 31 0 110 32 117 48 7 18 102 75 106 64 5 -16 37 -15 70 2 34 17 72 5 72 -23 0 -46 118 -40 186 8 56 39 69 39 94 -2 39 -63 17 -115 -60 -142 -51 -18 -90 -41 -90 -54 0 -4 14 -26 31 -47 27 -34 30 -45 26 -87 -2 -26 -12 -56 -21 -66 -12 -13 -15 -27 -11 -41 9 -27 62 -60 98 -60 39 0 97 -26 97 -44 0 -20 13 -27 68 -35 44 -6 47 -8 52 -41 8 -49 15 -57 53 -65 17 -4 47 -16 65 -27 37 -23 68 -20 134 12 54 26 93 26 111 -1 10 -13 23 -19 39 -17 20 3 23 8 23 48 0 41 2 45 27 48 32 4 43 -13 59 -88 9 -43 8 -56 -7 -88 -23 -48 -22 -91 1 -108 26 -19 51 -18 118 6 31 11 66 20 77 20 11 0 28 10 38 22 44 56 75 78 108 78 27 0 34 -4 34 -19 0 -31 39 -71 69 -71 40 0 63 29 54 70 -6 30 -4 33 13 26 109 -44 283 -30 374 32 55 37 77 45 140 51 61 6 65 8 75 36 13 39 29 52 160 126 201 114 231 143 186 180 -11 9 -21 25 -21 34 0 24 19 55 34 55 28 0 39 27 26 64 -10 32 -15 35 -57 38 -43 3 -46 5 -48 31 0 16 -6 31 -11 35 -6 4 -14 24 -18 44 -4 23 -18 46 -37 62 -31 26 -73 34 -84 16 -11 -18 -66 -10 -103 15 -20 14 -49 25 -63 25 -20 0 -36 11 -59 39 -38 49 -58 56 -105 36 -43 -17 -75 -20 -75 -5 0 6 7 10 15 10 10 0 15 11 15 35 0 19 4 35 8 35 5 0 24 14 42 30 18 17 41 30 49 31 63 5 153 -31 182 -72 24 -34 39 -36 64 -9 24 26 65 26 72 1 11 -44 64 -32 82 19 8 25 15 30 33 26 140 -31 176 -26 202 28 20 42 74 96 96 96 29 0 50 11 50 26 0 8 -6 14 -13 14 -7 0 -23 13 -35 30 -13 16 -31 30 -40 30 -21 0 -42 19 -42 37 0 8 14 13 38 13 26 0 56 11 93 33 30 19 88 55 130 80 42 26 83 47 91 47 23 0 70 41 64 56 -3 8 4 14 17 16 12 2 26 12 31 23 5 11 62 55 128 97 65 43 121 84 124 93 4 9 -1 24 -10 34 -19 21 -12 48 16 56 14 5 18 14 16 33 -2 22 -9 28 -38 32 -28 4 -35 10 -36 27 -1 13 -6 28 -12 35 -5 7 -12 24 -14 38 -4 34 -47 48 -92 32 -29 -11 -38 -10 -67 7 -19 10 -45 22 -59 26 -14 4 -40 21 -58 36 -38 33 -40 34 -78 14 -33 -17 -49 -7 -39 24 8 27 78 72 114 73 31 1 83 -24 111 -54 18 -20 21 -20 38 -5 23 21 48 22 56 2 9 -24 35 -18 48 11 12 25 14 25 78 19 l65 -7 32 46 c20 28 40 46 52 46 11 0 23 5 26 10 3 6 0 10 -8 10 -8 0 -17 9 -20 19 -2 11 -15 21 -28 23 -34 5 -38 38 -4 38 14 0 67 25 118 55 50 30 99 55 108 55 9 0 20 7 23 16 8 22 -42 73 -71 74 -26 0 -27 3 -13 31 6 11 22 19 38 20 23 1 24 2 7 7 -11 4 -32 15 -47 25 -20 14 -31 16 -45 8 -15 -7 -22 -5 -31 9 -7 12 -8 21 -2 25 14 9 12 25 -3 25 -8 0 -20 11 -27 25 -16 29 -25 25 -33 -14 -3 -15 -14 -31 -23 -35 -25 -10 -44 12 -38 44 4 15 1 31 -5 34 -6 4 -11 13 -11 19 0 13 19 17 73 18 17 0 27 5 27 14 0 9 -9 15 -22 15 -12 0 -31 9 -43 20 -28 27 -82 18 -97 -16 -20 -44 -58 -22 -58 33 0 28 4 33 23 33 40 0 50 14 43 57 -6 32 -3 42 13 57 28 25 13 42 -44 51 -35 5 -45 10 -45 25 0 26 58 90 81 90 10 0 19 5 19 10 0 6 -7 10 -15 10 -8 0 -15 7 -15 15 0 9 -12 18 -30 22 -38 7 -41 37 -5 39 14 1 63 24 109 51 45 28 94 53 108 56 39 10 49 57 12 57 -8 0 -14 6 -14 14 0 16 -34 31 -50 21 -6 -4 -10 5 -10 19 0 31 32 50 67 41 16 -4 22 -2 18 5 -3 5 -12 10 -19 10 -7 0 -21 9 -32 21 -13 15 -28 20 -50 17 -34 -4 -65 24 -42 38 8 5 7 10 -4 18 -8 6 -20 21 -27 34 -14 27 -31 20 -31 -12 0 -29 -24 -50 -46 -42 -12 4 -15 15 -12 36 3 18 -1 35 -9 41 -20 17 -16 38 6 32 10 -3 22 0 25 6 4 6 18 8 32 5 18 -5 24 -2 24 10 0 10 -8 16 -22 16 -12 0 -32 10 -45 22 -17 16 -26 19 -34 11 -6 -6 -17 -9 -24 -7 -7 3 -23 -9 -35 -26 -21 -30 -23 -30 -41 -14 -32 29 -23 96 12 87 30 -8 49 23 35 58 -9 24 -7 32 12 52 28 29 17 41 -46 52 -23 4 -42 12 -41 18 1 7 -1 19 -4 27 -3 8 -7 24 -9 35 -2 14 -12 21 -35 23 -25 3 -35 -3 -54 -30 -33 -47 -50 -58 -84 -55 -24 1 -35 11 -53 45 -13 23 -29 42 -36 42 -7 0 -23 23 -36 50 -21 44 -27 51 -49 48 -23 -3 -26 -8 -29 -50 -2 -36 -8 -48 -22 -53 -23 -7 -43 2 -34 16 3 6 3 21 0 35 -5 20 -13 24 -41 24 -39 0 -55 -20 -55 -68 0 -25 6 -32 31 -41 27 -9 30 -13 19 -26 -16 -19 -39 -19 -46 -1 -5 12 -11 12 -37 1 -43 -17 -64 -9 -41 16 12 13 13 19 4 19 -8 0 -11 10 -8 29 4 28 3 29 -24 24 -20 -4 -29 -1 -34 10 -8 21 -29 12 -42 -19 -7 -13 -18 -24 -27 -24 -8 0 -15 -6 -15 -12 0 -7 -4 -19 -9 -27 -8 -12 -12 -12 -25 -2 -8 7 -20 10 -26 6 -14 -8 -3 -49 28 -107 16 -31 22 -55 18 -71 -7 -30 -36 -45 -36 -19 0 21 -18 42 -36 42 -21 0 -29 -42 -10 -55 23 -17 20 -25 -8 -25 -14 0 -28 -4 -31 -10 -10 -16 -38 -12 -31 5 3 8 1 15 -4 15 -5 0 -15 7 -23 15 -13 12 -18 10 -37 -15 -13 -17 -29 -30 -36 -30 -8 0 -14 -7 -14 -15 0 -19 -40 -11 -86 16 -17 11 -38 19 -46 19 -9 0 -27 18 -42 40 -14 22 -30 40 -36 40 -13 0 -118 105 -276 278 -106 115 -140 159 -137 175 12 80 31 512 23 527 -5 10 -22 28 -36 39 -25 20 -39 21 -273 21 -177 0 -253 -4 -271 -13z m20 -1077 c0 -22 -1 -23 -24 -14 -13 5 -14 9 -5 20 16 20 29 17 29 -6z m519 6 c7 -8 8 -17 3 -20 -6 -3 -13 -22 -16 -41 -10 -52 -22 -35 -18 24 4 53 11 61 31 37z m-509 -97 c0 -17 -4 -28 -10 -24 -5 3 -10 17 -10 31 0 13 5 24 10 24 6 0 10 -14 10 -31z m-150 -14 c0 -8 -7 -15 -16 -15 -14 0 -14 3 -4 15 7 8 14 15 16 15 2 0 4 -7 4 -15z m-695 -175 c-10 -11 -14 -20 -10 -20 5 0 -7 -11 -26 -25 l-34 -26 -20 24 c-11 14 -30 28 -42 32 -55 16 -16 30 96 33 54 2 54 2 36 -18z m865 -32 c0 -19 -5 -28 -15 -28 -22 0 -30 27 -16 58 10 21 14 23 22 11 5 -7 9 -26 9 -41z m-1720 -493 c0 -8 -7 -15 -16 -15 -14 0 -14 3 -4 15 7 8 14 15 16 15 2 0 4 -7 4 -15z m2144 -204 c7 -46 1 -67 -22 -73 -15 -4 -17 3 -14 54 4 68 26 80 36 19z m-371 -33 c6 -51 -3 -82 -18 -58 -4 7 -9 34 -11 61 -3 36 0 49 10 49 8 0 15 -18 19 -52z m-117 8 c18 -14 18 -15 2 -21 -24 -9 -48 1 -48 20 0 19 20 19 46 1z m664 -33 c0 -7 -9 -13 -20 -13 -11 0 -20 6 -20 14 0 8 -3 22 -7 32 -6 16 -4 16 20 -2 14 -10 27 -25 27 -31z m-217 -124 c-5 -5 -7 7 -4 29 5 34 6 35 9 8 2 -16 0 -32 -5 -37z m33 -44 c22 -34 15 -59 -19 -63 -26 -3 -27 -2 -27 42 0 53 19 62 46 21z m-339 -110 c-3 -7 -16 -15 -29 -17 -16 -2 -24 -11 -26 -28 -2 -14 -9 -31 -14 -37 -7 -9 -7 -22 2 -43 8 -18 10 -48 7 -74 -6 -40 -4 -44 24 -57 l30 -14 -69 -74 c-61 -66 -71 -72 -90 -62 -11 6 -34 11 -50 11 -23 0 -37 11 -75 60 -26 33 -51 60 -57 60 -6 0 -5 10 2 26 11 23 16 25 68 22 53 -2 57 -1 99 40 24 23 50 42 57 42 8 0 14 2 14 5 0 12 -37 48 -58 56 -32 12 -23 31 15 34 17 1 57 21 89 43 56 37 73 40 61 7z m23 -596 c-9 -10 -24 -19 -33 -20 -14 -4 -14 -9 5 -49 11 -25 24 -63 28 -85 5 -22 11 -49 15 -61 4 -14 1 -27 -10 -38 -15 -15 -20 -15 -39 -3 -11 8 -30 31 -41 51 -15 30 -17 42 -8 65 13 35 4 53 -42 81 -19 12 -35 25 -35 29 0 4 37 40 83 80 l82 73 6 -54 c5 -42 2 -56 -11 -69z m-1284 -256 c-11 -11 -19 6 -11 24 8 17 8 17 12 0 3 -10 2 -21 -1 -24z"/>
</g>
<g id="layer103" fill="#88c057" stroke="none">
<path d="M2310 5107 c-32 -16 -51 -54 -45 -92 5 -33 12 -147 20 -335 3 -69 8 -134 10 -145 3 -14 -12 -39 -51 -80 -30 -33 -105 -115 -166 -182 -61 -68 -117 -123 -124 -123 -7 0 -19 6 -26 13 -16 16 -86 37 -121 37 -17 0 -28 -7 -32 -20 -4 -11 -20 -27 -36 -35 -16 -9 -29 -22 -29 -30 0 -8 -7 -15 -15 -15 -8 0 -28 -18 -43 -40 -17 -25 -35 -39 -49 -40 -12 0 -34 -13 -50 -28 -15 -16 -36 -31 -45 -35 -20 -7 -24 -37 -5 -38 19 -1 -29 -15 -155 -44 -114 -27 -117 -27 -142 -9 -37 27 -41 54 -16 108 16 33 21 56 16 79 -5 25 1 47 29 102 41 81 40 107 -6 98 -25 -5 -29 -2 -29 16 0 12 -6 21 -15 21 -8 0 -21 14 -30 30 -17 33 -30 38 -39 14 -4 -11 -13 -14 -31 -10 -22 6 -25 3 -25 -18 0 -14 -5 -28 -11 -32 -8 -5 -6 -10 5 -16 27 -15 18 -28 -19 -28 -22 0 -38 6 -44 18 -9 15 -10 16 -11 0 0 -22 -40 -35 -51 -17 -9 15 14 39 38 39 21 0 16 67 -7 90 -23 23 -33 24 -61 10 -13 -8 -19 -21 -19 -45 0 -35 -12 -43 -37 -27 -6 4 -13 28 -15 52 -3 41 -6 45 -30 48 -24 3 -30 -2 -44 -38 -9 -22 -25 -46 -35 -54 -10 -7 -32 -31 -49 -54 -44 -61 -77 -55 -142 26 -11 14 -29 22 -48 22 -27 0 -30 -3 -30 -29 0 -17 -4 -32 -10 -36 -5 -3 -7 -12 -4 -19 4 -10 -8 -16 -45 -21 -61 -8 -70 -19 -42 -49 23 -25 27 -46 10 -63 -14 -14 23 -53 51 -53 25 0 27 -45 4 -79 -15 -20 -23 -23 -62 -18 -25 3 -51 12 -58 21 -6 9 -26 21 -44 28 -28 9 -35 8 -46 -6 -6 -10 -25 -21 -40 -25 -38 -10 -43 -31 -7 -31 54 0 73 -4 73 -17 0 -6 -5 -15 -11 -19 -6 -3 -8 -17 -5 -29 8 -32 -2 -55 -25 -55 -20 0 -23 4 -33 53 -8 34 -19 35 -34 2 -6 -14 -18 -25 -27 -25 -17 0 -20 -16 -5 -25 20 -12 -2 -37 -29 -32 -35 7 -61 -9 -61 -36 0 -31 19 -50 37 -36 18 16 60 3 68 -21 8 -25 -1 -41 -20 -34 -20 8 -77 -50 -69 -70 3 -9 18 -19 32 -23 14 -3 63 -28 108 -56 46 -27 95 -50 109 -51 30 -1 30 -29 0 -35 -11 -2 -30 -14 -42 -28 l-23 -24 24 -9 c13 -4 41 -29 63 -55 l39 -46 45 10 c63 15 76 14 82 -9 3 -11 17 -25 32 -32 23 -10 29 -10 40 5 16 22 33 22 57 0 18 -16 21 -16 49 15 18 19 43 34 67 38 20 4 42 10 47 14 6 5 36 14 68 21 43 10 57 18 57 31 0 10 -4 18 -10 18 -5 0 -25 14 -45 31 -37 33 -46 66 -20 75 10 4 13 13 9 26 -8 26 17 108 33 108 7 0 13 5 13 11 0 7 8 18 18 25 16 13 16 15 -1 25 -24 14 -21 26 11 41 24 12 27 19 30 71 2 45 6 57 17 54 7 -3 29 2 49 12 65 34 88 33 112 -2 11 -18 27 -31 36 -29 9 1 25 -8 35 -21 16 -22 20 -23 40 -10 21 14 24 13 47 -14 31 -35 34 -73 6 -80 -12 -3 -20 -14 -20 -27 0 -12 -5 -27 -12 -34 -9 -9 -9 -18 1 -38 9 -21 14 -24 26 -14 8 7 15 21 15 31 0 11 7 19 17 19 9 0 25 8 35 17 17 15 19 15 31 -2 13 -17 15 -17 41 0 24 16 28 16 44 2 10 -9 19 -28 20 -42 2 -29 -23 -85 -38 -85 -6 0 -10 -5 -10 -11 0 -7 11 -9 29 -6 37 8 97 -9 105 -29 3 -9 13 -14 21 -11 9 4 28 -11 52 -38 29 -34 40 -41 50 -33 10 8 17 6 27 -7 8 -12 19 -16 30 -12 24 9 15 30 -15 37 -28 7 -37 51 -17 89 25 47 88 32 88 -20 0 -26 2 -29 19 -19 14 7 21 23 23 53 3 37 6 42 29 45 23 3 28 -3 44 -45 10 -26 24 -52 32 -56 7 -5 25 -26 38 -48 33 -51 59 -51 113 1 22 22 46 40 52 40 22 0 49 -21 44 -34 -3 -7 2 -21 11 -30 9 -9 14 -20 10 -25 -6 -10 25 -23 45 -19 33 8 13 -26 -57 -99 l-78 -80 -237 -54 c-230 -51 -238 -54 -238 -77 l0 -24 118 6 c64 4 142 9 172 12 l55 6 -52 -54 c-56 -57 -62 -68 -38 -68 8 0 15 -9 15 -20 0 -11 6 -20 14 -20 8 0 16 -7 20 -15 3 -8 14 -15 24 -15 26 0 34 -11 20 -27 -8 -10 -8 -17 0 -25 8 -8 45 19 135 95 69 59 133 114 142 123 13 13 21 14 40 6 20 -9 24 -8 29 14 8 30 28 31 41 2 12 -27 31 -25 27 2 -2 12 2 20 12 20 11 0 16 -18 20 -77 3 -43 10 -130 16 -193 5 -63 12 -164 15 -225 l6 -110 -79 -84 c-71 -75 -81 -82 -100 -72 -11 6 -34 11 -50 11 -23 0 -37 11 -75 60 -38 49 -52 60 -76 60 -16 0 -32 6 -34 13 -4 8 -6 7 -6 -4 -1 -19 40 -59 60 -59 29 0 59 -30 59 -61 0 -18 -5 -29 -14 -29 -17 0 -26 -22 -19 -48 3 -15 15 -22 37 -24 45 -4 40 -27 -22 -98 -49 -56 -58 -80 -29 -80 7 -1 32 -21 57 -45 25 -25 50 -45 57 -45 7 0 24 -12 40 -26 l28 -25 -25 -20 c-24 -19 -24 -20 -6 -34 11 -9 17 -22 13 -34 -10 -39 45 -83 59 -47 3 8 12 12 19 10 7 -3 21 6 30 20 17 26 45 36 45 16 0 -5 5 -10 10 -10 18 0 11 45 -9 57 -11 7 -28 29 -37 49 -14 30 -15 42 -6 66 10 26 8 33 -11 51 -12 12 -33 30 -47 39 l-25 17 60 56 c33 30 72 64 88 76 l27 20 0 -45 c0 -44 11 -59 25 -36 5 8 11 7 21 -1 7 -6 21 -9 30 -5 12 4 14 1 9 -14 -4 -12 -2 -20 5 -20 6 0 8 -4 5 -10 -9 -14 29 -12 43 2 9 9 12 9 12 0 0 -7 7 -12 15 -12 21 0 19 13 -5 28 -24 15 -26 45 -4 66 23 24 41 19 52 -11 l9 -28 6 35 c6 29 12 35 32 36 18 1 31 -6 43 -24 23 -36 83 -92 99 -92 7 0 26 13 43 30 34 34 83 40 116 15 30 -23 35 -18 28 25 -5 31 -3 45 11 60 9 10 14 24 10 30 -6 9 80 100 96 100 3 0 32 -9 65 -20 32 -11 71 -20 86 -20 15 0 29 -4 33 -10 3 -5 12 -7 20 -3 9 3 15 -1 15 -11 0 -9 -4 -16 -10 -16 -5 0 -10 -4 -10 -10 0 -5 9 -10 20 -10 11 0 20 -6 20 -14 0 -13 29 -26 61 -26 16 0 25 16 38 70 4 16 13 24 25 23 15 -1 17 4 13 26 -3 16 -1 33 6 40 8 8 5 18 -11 38 -12 16 -26 38 -32 50 -5 12 -23 29 -39 38 -34 17 -59 54 -43 64 5 3 15 23 23 44 7 21 18 36 25 33 6 -2 17 1 23 7 8 8 11 5 11 -11 0 -12 5 -22 11 -22 5 0 7 -4 4 -10 -3 -5 -2 -10 4 -10 20 0 20 18 1 43 -11 14 -20 34 -20 45 0 26 29 37 48 18 14 -13 17 -13 28 2 11 16 13 16 31 -1 11 -9 27 -17 37 -17 9 0 28 -7 42 -16 29 -20 35 -15 49 34 12 41 42 54 67 28 8 -8 23 -14 32 -13 25 3 49 -68 33 -94 -9 -15 -8 -22 7 -36 12 -12 20 -14 23 -7 13 35 30 46 61 39 32 -7 45 -25 18 -25 -8 0 -16 -7 -20 -15 -3 -8 -1 -15 4 -15 6 0 10 -7 10 -15 0 -8 7 -15 15 -15 9 0 15 9 15 21 0 15 4 19 16 15 9 -3 20 -6 25 -6 5 0 9 -7 9 -16 0 -21 44 -12 129 27 35 16 74 29 88 29 31 0 63 17 63 34 0 7 46 43 103 79 56 37 115 78 132 91 28 24 28 26 12 44 -23 25 -21 49 4 62 15 9 19 19 17 43 -3 29 -7 32 -40 35 -28 2 -36 7 -31 18 3 8 -2 23 -11 33 -9 10 -13 20 -10 24 4 4 -1 18 -10 32 -18 27 -61 34 -97 15 -15 -8 -19 -7 -19 4 0 15 -48 46 -71 46 -6 0 -27 14 -46 30 -34 30 -67 39 -78 20 -3 -5 -15 -10 -26 -10 -55 0 12 83 78 96 34 7 83 -14 124 -52 l26 -24 18 20 c22 24 34 25 50 3 15 -20 45 -11 52 15 4 16 11 18 61 11 59 -9 92 -4 92 11 0 18 63 80 81 80 10 0 19 5 19 10 0 6 -7 10 -15 10 -8 0 -15 7 -15 15 0 9 -12 18 -30 22 -38 7 -41 37 -5 39 14 1 63 24 109 51 45 28 94 53 108 56 39 10 49 57 12 57 -8 0 -14 6 -14 14 0 16 -34 31 -50 21 -6 -4 -10 5 -10 19 0 31 32 50 67 41 16 -4 22 -2 18 5 -3 5 -12 10 -19 10 -7 0 -21 9 -32 21 -13 15 -28 20 -50 17 -34 -4 -65 24 -42 38 8 5 7 10 -4 18 -8 6 -20 21 -27 34 -14 27 -31 20 -31 -12 0 -29 -24 -50 -46 -42 -12 4 -15 15 -12 36 3 18 -1 35 -9 41 -20 17 -16 38 6 32 10 -3 22 0 25 6 4 6 18 8 32 5 18 -5 24 -2 24 10 0 10 -8 16 -22 16 -12 0 -32 10 -45 22 -17 16 -26 19 -34 11 -6 -6 -17 -9 -24 -7 -7 3 -23 -9 -35 -26 -21 -30 -23 -30 -41 -14 -32 29 -23 96 12 87 30 -8 49 23 35 58 -9 24 -7 32 12 52 28 29 17 41 -46 52 -23 4 -42 12 -41 18 1 7 -1 19 -4 27 -3 8 -7 24 -9 35 -2 14 -12 21 -35 23 -25 3 -35 -3 -54 -30 -33 -47 -50 -58 -84 -55 -24 1 -35 11 -53 45 -13 23 -29 42 -36 42 -7 0 -23 23 -36 50 -21 44 -27 51 -49 48 -23 -3 -26 -8 -29 -50 -2 -36 -8 -48 -22 -53 -23 -7 -43 2 -34 16 3 6 3 21 0 35 -5 20 -13 24 -41 24 -39 0 -55 -20 -55 -68 0 -25 6 -32 31 -41 27 -9 30 -13 19 -26 -16 -19 -39 -19 -46 -1 -5 12 -11 12 -37 1 -43 -17 -64 -9 -41 16 12 13 13 19 4 19 -8 0 -11 10 -8 29 4 28 3 29 -24 24 -20 -4 -29 -1 -34 10 -8 21 -29 12 -42 -19 -7 -13 -18 -24 -27 -24 -8 0 -15 -6 -15 -12 0 -7 -4 -19 -9 -27 -8 -12 -12 -12 -25 -2 -22 18 -37 4 -30 -27 14 -55 45 -103 74 -114 16 -5 32 -17 35 -26 10 -30 53 -72 73 -72 11 0 27 11 36 25 21 32 52 33 60 1 4 -15 14 -26 29 -28 18 -2 23 -10 25 -46 3 -37 0 -44 -17 -49 -24 -6 -28 -35 -6 -53 12 -10 15 -10 15 3 0 20 36 28 69 15 l26 -11 -35 -10 c-31 -8 -33 -10 -15 -18 11 -4 15 -8 9 -8 -16 -1 -10 -46 7 -46 8 0 15 10 17 23 4 24 22 31 22 7 0 -8 5 -15 10 -15 6 0 10 -9 10 -20 0 -13 7 -20 20 -20 24 0 25 -4 3 -41 -13 -22 -22 -27 -40 -23 -31 8 -30 -13 2 -38 33 -26 32 -34 -8 -47 -19 -7 -49 -23 -67 -36 -19 -14 -42 -25 -52 -25 -24 0 -23 -8 6 -31 l24 -19 -34 -35 c-30 -32 -37 -35 -69 -29 -23 4 -35 2 -35 -5 0 -15 -27 -14 -34 2 -3 8 -9 6 -20 -8 -16 -19 -16 -19 -32 3 -25 37 -104 26 -104 -15 0 -9 9 -11 30 -7 22 5 31 2 36 -9 9 -25 74 -59 100 -53 25 7 39 -7 49 -46 4 -14 15 -28 26 -31 20 -5 27 -37 8 -37 -7 0 -9 -12 -7 -31 4 -25 0 -33 -19 -42 -12 -5 -23 -14 -23 -19 0 -4 -5 -8 -12 -8 -19 0 -78 -44 -78 -57 0 -7 -10 -13 -22 -13 -13 0 -48 -9 -78 -21 -39 -15 -67 -19 -97 -15 -34 4 -43 2 -43 -9 0 -21 -47 -19 -59 2 -9 17 -11 17 -33 -3 -28 -24 -72 -44 -99 -44 -23 0 -36 25 -21 43 13 16 6 68 -10 78 -9 6 -14 1 -16 -16 -3 -21 -7 -23 -40 -19 -30 4 -33 2 -17 -6 15 -8 8 -9 -29 -4 -47 5 -49 5 -36 -13 7 -10 -4 0 -25 22 -40 41 -56 53 -114 79 -25 12 -32 20 -26 33 16 39 17 54 5 68 -10 12 -8 16 13 24 33 13 40 26 27 52 -10 18 -13 19 -28 6 -27 -23 -69 -29 -76 -12 -7 18 -41 12 -99 -17 -39 -20 -57 -17 -57 8 0 8 -8 18 -17 21 -23 8 -58 45 -59 61 -1 7 -2 21 -2 32 -1 11 -9 20 -17 20 -9 0 -15 9 -15 24 0 17 -10 31 -30 43 -27 15 -29 21 -24 53 13 83 15 88 39 94 35 9 78 55 72 77 -3 11 -1 19 4 19 5 0 9 12 10 28 0 15 3 21 6 12 3 -8 12 -19 19 -23 8 -4 14 -15 14 -22 0 -8 7 -15 15 -15 8 0 15 -7 15 -15 0 -16 25 -21 35 -6 3 5 0 15 -7 23 -16 16 -22 78 -8 78 5 0 10 11 10 25 0 38 42 34 74 -7 20 -25 26 -29 26 -15 0 28 29 77 45 77 8 0 15 7 15 15 0 31 138 65 148 37 2 -7 10 -12 17 -12 8 0 22 -13 32 -30 9 -16 22 -30 28 -30 31 -1 75 -70 45 -70 -15 0 -12 -26 5 -40 9 -7 13 -20 10 -30 -3 -9 3 -24 15 -35 18 -16 20 -16 26 -1 3 9 13 16 22 16 8 0 24 8 34 17 14 13 21 14 30 5 17 -17 28 -15 28 7 0 10 7 22 16 25 14 6 16 17 11 80 -8 94 -29 133 -81 147 -21 6 -46 17 -54 26 -8 8 -23 12 -33 10 -10 -3 -26 4 -36 16 -11 12 -12 17 -4 12 8 -5 5 6 -8 23 -12 18 -27 32 -32 32 -13 0 -110 97 -275 278 -106 115 -140 159 -137 175 12 80 31 512 23 527 -5 10 -22 28 -36 39 -25 20 -39 21 -273 21 -177 0 -253 -4 -271 -13z m20 -1077 c0 -22 -1 -23 -24 -14 -13 5 -14 9 -5 20 16 20 29 17 29 -6z m519 6 c7 -8 8 -17 3 -20 -6 -3 -13 -22 -16 -41 -10 -52 -22 -35 -18 24 4 53 11 61 31 37z m-509 -97 c0 -17 -4 -28 -10 -24 -5 3 -10 17 -10 31 0 13 5 24 10 24 6 0 10 -14 10 -31z m-150 -14 c0 -8 -7 -15 -16 -15 -14 0 -14 3 -4 15 7 8 14 15 16 15 2 0 4 -7 4 -15z m-695 -175 c-10 -11 -14 -20 -10 -20 5 0 -7 -11 -26 -25 l-34 -26 -20 24 c-11 14 -30 28 -42 32 -55 16 -16 30 96 33 54 2 54 2 36 -18z m865 -32 c0 -19 -5 -28 -15 -28 -22 0 -30 27 -16 58 10 21 14 23 22 11 5 -7 9 -26 9 -41z m676 -520 l29 -33 -32 29 c-31 28 -38 36 -30 36 2 0 16 -15 33 -32z m-157 -160 c20 -18 51 -44 69 -58 17 -14 32 -31 32 -38 0 -7 10 -26 21 -42 14 -19 20 -36 16 -52 -20 -79 -20 -81 -2 -95 11 -7 31 -13 47 -13 23 0 28 -4 28 -23 0 -29 26 -54 60 -59 19 -2 25 -9 25 -28 0 -37 -34 -39 -62 -4 -19 25 -23 26 -29 11 -9 -25 -55 -46 -79 -37 -19 7 -19 7 3 19 27 14 28 29 5 47 -15 11 -16 17 -6 43 12 34 7 37 -33 19 -23 -11 -28 -10 -44 10 -23 28 -43 20 -56 -21 -7 -24 -17 -34 -41 -42 -24 -6 -33 -15 -33 -30 0 -34 -17 -44 -51 -32 -27 11 -29 14 -24 57 2 25 7 88 11 140 4 52 8 106 10 120 1 14 3 49 3 78 1 53 1 54 29 48 15 -3 34 -2 42 4 20 13 18 14 59 -22z m496 -188 c21 -22 37 -40 34 -40 -3 0 -23 18 -44 40 -21 22 -37 40 -34 40 3 0 23 -18 44 -40z m-608 -421 c20 -33 34 -62 31 -65 -3 -2 -24 17 -47 44 -33 40 -41 57 -40 88 0 35 1 37 10 15 5 -13 26 -50 46 -82z m149 -191 l29 -33 -32 29 c-31 28 -38 36 -30 36 2 0 16 -15 33 -32z"/>
<path d="M500 3085 c0 -16 6 -25 15 -25 8 0 15 4 15 9 0 5 3 16 6 25 4 12 0 16 -15 16 -16 0 -21 -6 -21 -25z"/>
<path d="M4126 2255 c-8 -8 -22 -15 -30 -15 -9 0 -16 -7 -16 -15 0 -8 -16 -21 -35 -29 -19 -8 -38 -22 -41 -31 -3 -8 -15 -15 -25 -15 -11 0 -22 -7 -26 -16 -3 -8 -11 -13 -19 -10 -26 10 -81 -14 -93 -40 -15 -34 -9 -40 22 -19 19 12 31 14 44 6 18 -9 44 -6 110 14 16 5 28 0 47 -19 18 -21 30 -25 49 -21 14 4 28 13 31 22 7 17 -10 53 -24 53 -6 0 -10 5 -10 11 0 6 9 9 19 6 12 -3 22 1 26 10 4 12 16 14 55 10 29 -4 52 -2 56 4 8 14 -14 38 -53 54 -18 8 -33 19 -33 24 0 6 -9 15 -19 21 -15 7 -23 6 -35 -5z"/>
<path d="M4219 2083 c-5 -14 -8 -32 -5 -39 7 -19 -24 -46 -45 -41 -20 5 -36 -23 -18 -33 15 -10 4 -44 -32 -98 -16 -24 -29 -50 -29 -57 0 -22 -105 -124 -143 -140 -19 -8 -32 -20 -32 -32 0 -14 -8 -18 -38 -18 -36 0 -40 -3 -52 -38 -17 -50 -33 -67 -61 -67 -20 0 -24 5 -24 33 0 37 -15 57 -42 57 -12 0 -17 -7 -15 -22 1 -17 -3 -22 -15 -20 -10 2 -18 -1 -18 -6 0 -4 -9 -18 -20 -30 -22 -23 -74 -30 -85 -12 -4 7 -12 7 -25 0 -13 -7 -21 -7 -25 0 -3 5 -26 10 -51 10 -41 0 -44 2 -44 26 0 17 -6 28 -20 31 -26 7 -25 31 2 60 l22 23 -22 22 -22 22 -29 -32 c-21 -23 -39 -32 -61 -32 -18 0 -33 -6 -36 -15 -4 -8 -10 -13 -15 -10 -7 5 -36 -36 -30 -43 2 -2 0 -6 -3 -8 -3 -2 -4 -1 -1 2 10 15 -15 42 -35 37 -11 -3 -27 0 -35 7 -8 6 -18 9 -24 6 -5 -3 -11 -2 -13 3 -4 11 -48 -5 -48 -19 0 -5 6 -10 14 -10 7 0 19 -6 25 -14 9 -11 3 -22 -29 -55 -37 -37 -45 -41 -76 -35 -22 4 -40 2 -50 -7 -14 -11 -18 -10 -31 6 -14 20 -14 20 -29 1 -13 -18 -15 -18 -26 -4 -7 9 -30 21 -50 28 -34 10 -41 9 -68 -10 -40 -28 -40 -52 -1 -44 23 5 32 2 40 -15 16 -29 69 -56 111 -56 32 0 36 -3 49 -42 10 -29 22 -43 36 -45 11 -2 19 -9 18 -15 -1 -6 4 -17 12 -23 8 -7 15 -21 15 -32 0 -17 3 -18 15 -8 8 7 15 21 15 31 0 14 7 19 25 19 14 0 25 -4 25 -8 0 -15 64 -92 76 -92 6 0 25 14 42 30 18 17 35 30 40 30 4 0 13 -13 19 -30 8 -20 18 -30 32 -30 12 0 21 -4 21 -10 0 -17 15 -11 50 20 18 17 41 30 49 31 63 5 153 -31 182 -72 24 -34 39 -36 64 -9 24 26 65 26 72 1 11 -44 64 -32 82 19 8 25 15 30 33 26 140 -31 176 -26 202 28 20 42 74 96 96 96 29 0 50 11 50 26 0 8 -6 14 -13 14 -7 0 -23 14 -35 30 -13 17 -31 30 -40 30 -21 0 -42 19 -42 37 0 8 14 13 38 13 26 0 56 11 93 33 30 19 88 55 130 80 42 26 84 47 92 47 9 0 27 10 41 23 19 16 24 28 20 45 -4 12 -10 22 -15 22 -4 0 -20 11 -35 25 -18 16 -39 25 -60 25 -29 0 -34 4 -34 23 0 13 9 32 20 42 18 17 25 17 56 6 42 -15 59 -5 70 42 5 26 2 35 -20 54 -28 24 -80 31 -91 12 -5 -7 -16 -2 -31 12 -23 22 -24 22 -4 36 23 16 27 43 7 43 -16 0 -51 37 -60 63 -9 26 -36 21 -48 -10z"/>
<path d="M830 1866 c0 -23 -3 -25 -28 -20 -42 8 -69 -23 -63 -72 1 -13 -18 -19 -91 -29 -42 -6 -48 -10 -48 -31 0 -13 -8 -39 -17 -58 -13 -29 -14 -40 -5 -61 16 -34 15 -91 -2 -137 l-14 -38 74 -35 c89 -43 100 -60 84 -123 -10 -41 -9 -48 6 -59 15 -11 21 -10 39 7 12 11 29 20 38 20 22 0 47 -38 47 -73 0 -15 7 -30 15 -33 11 -5 13 -16 9 -43 -5 -33 -3 -37 28 -51 26 -12 34 -22 38 -50 5 -33 7 -35 45 -36 22 -1 46 -2 53 -3 7 -1 12 -16 12 -39 0 -46 14 -62 55 -62 31 0 110 32 117 48 7 18 102 75 106 64 5 -16 37 -15 70 2 34 17 72 5 72 -23 0 -46 118 -40 186 8 56 39 69 39 94 -1 39 -64 17 -116 -60 -143 -51 -18 -90 -41 -90 -54 0 -4 14 -26 31 -47 27 -34 30 -45 26 -87 -2 -26 -12 -56 -21 -66 -12 -13 -15 -27 -11 -41 9 -27 62 -60 98 -60 39 0 97 -26 97 -44 0 -20 13 -27 68 -35 44 -6 47 -8 52 -41 8 -49 15 -57 53 -65 17 -4 47 -16 65 -27 37 -23 68 -20 134 12 54 26 93 26 111 -1 10 -13 23 -19 39 -17 20 3 23 8 23 48 0 41 2 45 27 48 32 4 43 -13 59 -88 9 -43 8 -56 -7 -88 -23 -48 -22 -91 1 -108 26 -19 51 -18 118 6 31 11 66 20 77 20 11 0 28 10 38 22 44 56 75 78 108 78 27 0 34 -4 34 -19 0 -31 39 -71 69 -71 40 0 63 29 54 70 -6 30 -4 33 13 26 109 -44 283 -30 374 32 55 37 77 45 140 51 61 6 65 8 75 36 13 39 29 52 160 126 201 114 231 143 186 180 -11 9 -21 25 -21 34 0 24 19 55 34 55 28 0 39 27 26 64 -10 32 -15 35 -57 38 -43 3 -46 5 -48 31 0 16 -6 31 -11 35 -6 4 -14 24 -18 44 -4 23 -18 46 -37 62 -31 26 -73 34 -84 16 -11 -18 -66 -10 -103 15 -20 14 -49 25 -63 25 -20 0 -36 11 -59 39 -39 50 -57 56 -109 35 -23 -9 -50 -14 -61 -11 -23 6 -23 6 -10 -29 l10 -26 25 26 c19 20 29 24 46 17 30 -11 35 -29 9 -33 -11 -2 -21 -6 -20 -10 0 -5 0 -19 0 -33 0 -16 6 -25 15 -25 8 0 15 9 15 20 0 11 3 20 6 20 11 0 33 -34 34 -52 0 -11 6 -15 20 -11 11 3 21 0 22 -6 4 -31 1 -36 -21 -36 -35 0 -37 -21 -2 -41 34 -20 31 -40 -9 -49 -16 -4 -46 -20 -66 -36 -20 -16 -42 -29 -48 -29 -6 0 1 -10 17 -21 32 -24 35 -39 7 -39 -10 0 -24 -9 -30 -20 -8 -15 -21 -20 -55 -20 -26 0 -45 -5 -45 -11 0 -7 -10 -9 -27 -5 -17 5 -29 3 -34 -6 -6 -9 -14 -5 -33 15 -34 37 -76 35 -97 -5 -10 -18 -8 -19 20 -13 24 5 32 3 37 -10 8 -21 83 -59 111 -56 16 2 23 -5 28 -28 4 -17 13 -31 21 -31 20 0 29 -27 15 -44 -7 -8 -9 -25 -6 -38 5 -20 -1 -27 -43 -50 -26 -15 -60 -38 -75 -52 -16 -14 -34 -26 -42 -26 -7 0 -35 -9 -62 -21 -34 -15 -62 -20 -95 -16 -34 3 -48 0 -48 -8 0 -11 -21 -25 -35 -25 -3 0 -13 10 -25 22 -21 23 -35 18 -42 -17 -2 -13 -15 -22 -41 -28 -49 -12 -66 1 -51 41 11 30 4 74 -13 79 -6 2 -13 -6 -16 -17 -4 -16 -11 -19 -30 -15 -14 4 -33 2 -44 -3 -27 -14 -73 3 -117 43 -21 19 -46 35 -57 35 -26 0 -33 17 -19 51 10 23 10 32 0 44 -15 18 -5 35 20 35 20 0 29 16 22 42 -3 14 -12 16 -53 11 -29 -3 -54 -1 -62 5 -17 14 -52 10 -102 -12 -38 -16 -41 -16 -55 1 -8 11 -23 22 -32 26 -10 3 -18 13 -18 21 0 8 -6 16 -12 18 -7 3 -13 11 -14 19 0 8 -2 25 -2 38 -2 16 -6 21 -17 17 -11 -4 -15 2 -15 24 0 23 -7 33 -30 45 -26 13 -30 21 -30 54 0 46 9 73 21 66 4 -3 13 4 19 15 6 11 18 20 26 20 12 0 15 6 10 26 -5 19 -2 30 11 39 18 13 43 10 43 -6 0 -14 33 -49 47 -49 15 0 17 21 4 36 -18 19 -21 62 -5 68 10 4 13 13 9 26 -9 28 19 36 51 15 15 -9 29 -26 32 -37 4 -17 7 -15 17 13 7 19 15 41 19 50 4 10 0 24 -11 35 -17 17 -18 17 -21 -9 -4 -30 -13 -33 -42 -14 -17 10 -26 9 -50 -5 -37 -21 -87 -7 -100 28 -7 16 -17 24 -34 24 -13 0 -29 7 -36 15 -7 8 -21 15 -30 15 -46 0 -66 30 -39 57 9 9 8 18 -5 38 -22 34 -16 51 22 58 34 7 47 30 31 59 -10 18 -12 18 -29 3 -26 -23 -88 -32 -95 -13 -8 20 -66 9 -118 -22 -30 -18 -40 -20 -52 -10 -8 7 -15 19 -15 26 0 8 -10 14 -25 14 -15 0 -25 6 -25 14 0 8 -7 17 -15 20 -9 3 -15 11 -14 18 1 7 1 24 0 37 -1 21 -5 23 -31 18 -30 -7 -32 -5 -34 37 -1 10 -16 27 -36 37 -31 17 -34 23 -32 56 5 64 13 93 27 93 7 0 1 13 -15 30 -34 37 -63 38 -96 5 -55 -55 -148 -81 -175 -49 -11 14 -10 21 4 46 21 36 22 88 2 114 -13 17 -14 17 -15 2 0 -10 -4 -18 -10 -18 -5 0 -9 -3 -9 -7 4 -23 -3 -33 -21 -33 -11 0 -20 5 -20 10 0 13 -49 13 -89 -1 -24 -9 -38 -9 -54 0 -12 6 -34 15 -49 20 -19 7 -28 18 -30 38 -2 23 -8 29 -35 31 -29 3 -33 0 -33 -22z"/>
<path d="M1515 1787 c-20 -15 -15 -21 28 -31 27 -6 32 0 21 28 -8 20 -24 20 -49 3z"/>
<path d="M1675 1750 c3 -5 15 -10 26 -10 10 0 19 5 19 10 0 6 -12 10 -26 10 -14 0 -23 -4 -19 -10z"/>
<path d="M2680 1055 c-25 -14 -50 -25 -57 -25 -7 0 -13 -7 -13 -15 0 -7 -8 -18 -17 -24 -17 -9 -17 -10 0 -28 9 -11 17 -29 17 -40 0 -25 31 -55 37 -35 3 6 9 12 15 12 5 0 21 9 35 20 24 19 27 19 45 4 17 -16 18 -16 18 4 0 12 7 25 16 30 13 7 15 19 9 65 -7 53 -9 57 -34 57 -14 -1 -46 -12 -71 -25z"/>
</g>
<g id="layer104" fill="#bf8e5f" stroke="none">
<path d="M2310 5107 c-32 -16 -51 -54 -45 -92 5 -33 12 -147 20 -335 3 -69 8 -135 10 -146 3 -13 -4 -31 -18 -45 -13 -13 -79 -85 -147 -159 -68 -74 -167 -181 -220 -237 l-97 -103 -129 -30 c-71 -17 -149 -37 -174 -45 -25 -7 -99 -25 -165 -40 -194 -43 -245 -57 -240 -66 3 -4 12 -6 19 -3 8 3 22 -6 32 -19 17 -22 20 -23 41 -10 21 14 24 13 41 -7 17 -21 20 -21 117 -11 55 6 132 12 171 13 l71 4 -77 -84 c-53 -57 -76 -90 -73 -102 5 -20 -22 -80 -37 -80 -6 0 -10 -5 -10 -11 0 -7 11 -9 29 -6 37 8 97 -9 105 -29 3 -9 12 -14 19 -11 6 2 20 -2 30 -11 15 -13 19 -13 35 0 28 24 332 286 402 347 35 31 89 79 120 106 119 105 181 157 185 154 3 -4 14 -123 40 -433 l14 -169 -137 -144 c-92 -96 -147 -146 -167 -152 -16 -4 -126 -30 -242 -57 -205 -46 -213 -49 -213 -72 l0 -24 118 6 c64 4 142 9 172 12 l55 6 -52 -54 c-56 -57 -62 -68 -38 -68 8 0 15 -9 15 -20 0 -11 6 -20 14 -20 8 0 16 -7 20 -15 3 -8 14 -15 24 -15 26 0 34 -11 20 -27 -8 -10 -8 -17 0 -25 8 -8 47 20 144 103 73 62 142 121 153 130 11 10 45 38 75 64 l55 46 7 -43 c5 -24 13 -108 19 -188 20 -275 28 -395 29 -426 0 -27 -20 -52 -143 -180 -79 -82 -162 -170 -186 -196 -40 -44 -46 -68 -18 -68 7 -1 32 -21 57 -45 59 -59 73 -58 89 5 12 46 23 60 114 142 l102 91 3 -47 c3 -44 13 -58 27 -36 5 8 11 7 21 -1 7 -6 21 -9 30 -5 12 4 14 1 9 -14 -4 -12 -2 -20 5 -20 6 0 8 -4 5 -10 -9 -14 29 -12 43 2 9 9 12 9 12 0 0 -7 7 -12 15 -12 21 0 19 13 -5 28 -24 15 -26 45 -4 66 23 24 41 19 52 -11 l9 -28 6 35 c6 29 12 35 32 36 18 1 31 -6 43 -24 23 -36 83 -92 99 -92 7 0 26 13 43 30 21 20 41 30 62 30 29 0 26 4 -93 133 -68 73 -134 144 -147 159 -23 26 -23 26 -13 169 16 211 21 278 26 334 3 28 7 83 11 123 3 39 8 72 11 72 2 0 37 -28 77 -62 75 -65 85 -74 248 -210 l97 -82 58 -238 c54 -222 59 -238 80 -238 12 0 24 -4 28 -10 11 -17 35 1 30 24 -2 11 -7 86 -10 165 l-7 145 37 -28 36 -28 12 31 c6 17 17 29 23 27 6 -2 17 1 23 7 8 8 11 5 11 -11 0 -12 5 -22 11 -22 5 0 7 -4 4 -10 -3 -5 -2 -10 4 -10 20 0 20 18 1 43 -11 14 -20 36 -20 50 0 24 -48 79 -274 317 -82 86 -95 97 -154 124 -24 11 -32 20 -28 33 3 12 -13 39 -52 82 l-58 63 -42 -21 c-44 -22 -62 -21 -62 5 0 8 -8 18 -17 21 -23 8 -58 45 -59 61 -1 7 -2 21 -2 32 -1 11 -9 20 -17 20 -9 0 -15 9 -15 24 0 17 -10 31 -30 43 -27 15 -29 21 -24 53 13 83 15 88 39 94 35 9 78 55 72 77 -3 11 -1 19 3 19 10 0 18 62 26 210 3 63 7 117 9 118 2 2 51 -38 110 -90 115 -101 125 -108 125 -84 0 31 138 67 148 38 2 -7 10 -12 17 -12 8 0 22 -13 32 -30 9 -16 22 -30 28 -30 31 -1 75 -70 45 -70 -15 0 -12 -26 5 -40 9 -7 13 -20 10 -30 -3 -9 3 -24 15 -35 18 -16 20 -16 26 -1 3 9 13 16 22 16 8 0 24 8 34 17 14 13 21 14 30 5 17 -17 28 -15 28 7 0 10 7 22 16 25 15 6 16 17 11 81 -4 44 -14 87 -24 103 -9 15 -18 28 -19 30 -1 1 -32 11 -70 22 -47 14 -76 28 -93 47 -13 16 -83 91 -156 168 -254 269 -302 325 -298 348 12 80 31 512 23 527 -5 10 -22 28 -36 39 -25 20 -39 21 -273 21 -177 0 -253 -4 -271 -13z"/>
<path d="M4075 3788 c1 -13 8 -23 16 -23 8 0 15 10 17 23 3 16 -2 22 -16 22 -13 0 -18 -6 -17 -22z"/>
<path d="M4130 3791 c0 -6 5 -11 10 -11 6 0 10 -9 10 -20 0 -11 7 -20 16 -20 26 0 14 54 -13 58 -13 2 -23 -1 -23 -7z"/>
<path d="M3722 3418 c-23 -23 -14 -38 18 -32 22 5 31 2 36 -9 9 -25 74 -59 100 -53 25 7 39 -7 49 -46 4 -14 15 -28 26 -31 20 -5 27 -37 8 -37 -7 0 -9 -12 -7 -31 4 -25 0 -33 -19 -42 -39 -17 -71 14 351 -349 55 -48 108 -88 116 -88 27 0 60 30 60 55 0 17 -38 65 -122 158 -372 408 -444 486 -455 486 -6 1 -14 7 -17 14 -3 8 -9 6 -20 -8 -16 -19 -16 -19 -32 3 -17 25 -71 31 -92 10z"/>
<path d="M3340 3055 c0 -22 -3 -23 -37 -19 -29 3 -33 2 -18 -5 11 -5 37 -10 59 -10 31 -1 37 2 32 15 -3 9 -6 19 -6 24 0 4 -7 10 -15 14 -11 4 -15 -1 -15 -19z"/>
<path d="M3820 3057 c0 -11 -8 -17 -24 -17 -35 0 -98 -29 -93 -43 2 -7 17 -68 33 -136 26 -110 31 -124 54 -133 13 -5 28 -14 31 -20 4 -6 12 -7 18 -4 8 5 10 35 6 94 -2 48 -7 127 -10 176 -3 49 -7 91 -10 94 -3 3 -5 -2 -5 -11z"/>
<path d="M690 2777 c0 -22 31 -57 51 -57 24 0 24 11 -2 44 -22 27 -49 35 -49 13z"/>
<path d="M1950 2729 c0 -18 -2 -19 -15 -9 -20 17 -32 5 -15 -15 16 -19 40 -20 40 -1 0 8 3 21 6 30 3 9 1 16 -5 16 -6 0 -11 -10 -11 -21z"/>
<path d="M1365 2379 c-4 -5 1 -19 10 -29 13 -15 16 -29 12 -57 l-6 -37 35 35 c39 39 38 56 -5 82 -34 20 -38 20 -46 6z"/>
<path d="M1639 1823 c-11 -3 -15 -12 -11 -28 4 -22 10 -25 46 -25 27 0 36 3 27 9 -8 5 -11 16 -6 30 5 17 2 21 -17 20 -13 -1 -30 -3 -39 -6z"/>
<path d="M1517 1789 c-24 -14 -12 -29 25 -29 23 0 29 4 24 16 -3 9 -6 18 -6 20 0 7 -25 4 -43 -7z"/>
<path d="M3340 1694 c-11 -13 -10 -19 8 -37 21 -20 23 -20 39 -4 16 15 16 18 -2 37 -22 24 -29 25 -45 4z"/>
<path d="M3037 1623 c-13 -12 -7 -23 13 -23 11 0 20 7 20 15 0 15 -21 21 -33 8z"/>
</g>


</svg>