<!DOCTYPE svg PUBLIC "-//W3C//DTD SVG 20010904//EN" "http://www.w3.org/TR/2001/REC-SVG-20010904/DTD/svg10.dtd">
<svg version="1.0" xmlns="http://www.w3.org/2000/svg" width="512px" height="512px" viewBox="0 0 5120 5120" preserveAspectRatio="xMidYMid meet">
<g id="layer101" fill="#722802" fill-rule="evenodd">
<path d="M840 2523 L846 2520 L850 2530 L856 2530C860 2530,865 2532,868 2535 C871 2537,877 2540,881 2540 L890 2540L895 2545 900 2550 L900 2550 L900 2555C900 2557,902 2560,905 2560 L910 2560L920 2560 L930 2565L940 2570L945 2575 950 2580 L950 2580 L950 2585C950 2587,952 2590,955 2590 L960 2590L970 2590 L995 2605L1020 2620L1020 2620 L1020 2625C1020 2627,1022 2630,1025 2630 L1030 2630L1030 2630 L1032 2630C1033 2631,1040 2633,1047 2635 L1060 2640L1065 2645 L1070 2650 L1080 2655L1090 2660L1095 2665 L1102 2667 1107 2672 L1115 2675 L1120 2680 L1123 2685C1125 2687,1128 2690,1130 2690 C1133 2691,1140 2693,1147 2695 L1160 2700L1165 2705 1170 2710 L1170 2710 L1170 2715C1170 2717,1172 2720,1175 2720 L1180 2720L1190 2720 L1193 2725C1195 2727,1198 2730,1200 2730 C1203 2731,1210 2733,1217 2735 L1230 2740L1235 2745 1240 2750 L1240 2750 1245 2755 L1250 2760 L1252 2760C1253 2761,1260 2763,1267 2765 L1280 2770L1285 2775 1290 2780 L1290 2780 1295 2785 L1300 2790 L1302 2790C1303 2791,1310 2793,1317 2795 L1330 2800L1335 2805 1340 2810 L1340 2810 1345 2815 L1350 2820 L1370 2830L1390 2840L1395 2845 1400 2850 L1410 2850 L1413 2855C1415 2857,1418 2860,1420 2860 C1423 2861,1430 2863,1437 2865 L1450 2870L1455 2875 1460 2880 L1460 2880 1465 2885 L1470 2890 L1472 2890C1473 2891,1480 2893,1487 2895 L1500 2900L1505 2905 1510 2910 L1510 2910 1515 2915 L1520 2920 L1532 2925C1539 2927,1548 2930,1552 2930 C1556 2930,1562 2930,1565 2930 L1570 2930L1570 2930 L1583 2948C1591 2959,1594 2972,1589 2980 C1585 2988,1583 2997,1585 3002 L1590 3010L1590 3010 L1582 3010C1578 3010,1519 3120,1452 3255 C1376 3407,1330 3511,1330 3530 C1330 3549,1339 3570,1354 3585 C1377 3608,1384 3610,1504 3610 C1573 3610,1632 3610,1635 3610 L1640 3610L1650 3610 1655 3605 L1660 3600 L1705 3600L1750 3600L1755 3595 L1760 3590 L1795 3590L1830 3590L1835 3585 L1840 3580 L1860 3580L1880 3580L1885 3575 L1890 3570 L1910 3570L1930 3570L1935 3565 L1940 3560 L1955 3560L1970 3560L1975 3555 L1980 3550 L1995 3550L2010 3550L2015 3545 L2020 3540 L2025 3540C2027 3540,2032 3540,2035 3540 L2040 3540L2045 3535 L2050 3530 L2090 3520L2130 3510L2135 3505 L2140 3500 L2145 3500C2147 3500,2152 3500,2155 3500 L2160 3500L2165 3495 L2170 3490 L2200 3480L2230 3470L2235 3465 L2242 3462 2247 3457 L2255 3455 L2262 3452 2267 3447 L2275 3445 L2282 3442 2287 3437 L2295 3435 L2300 3430 L2345 3405L2390 3380L2395 3375 L2400 3370 L2415 3360L2430 3350L2435 3345 L2440 3340 L2455 3330L2470 3320L2470 3320 L2475 3320C2477 3320,2480 3317,2480 3315 L2480 3310L2480 3310 L2485 3310C2487 3310,2490 3307,2490 3305 L2490 3300L2490 3300 L2495 3300C2497 3300,2500 3297,2500 3295 L2500 3290L2500 3290 L2505 3290C2507 3290,2510 3287,2510 3285 L2510 3280L2510 3280 L2515 3327C2518 3353,2520 3378,2520 3382 C2520 3386,2520 3459,2520 3545 L2520 3700L2520 3700 L2462 3733C2430 3752,2376 3779,2342 3794 C2307 3808,2242 3829,2197 3840 C2152 3850,2100 3859,2083 3859 C2065 3859,2044 3862,2035 3865 L2020 3870L2020 3870 L2002 3865C1992 3863,1970 3859,1952 3856 C1922 3850,1920 3852,1925 3872 C1928 3884,1930 3898,1930 3902 L1930 3910L1930 3910 L1934 3934C1937 3947,1937 3970,1935 3986 C1932 4002,1928 4034,1925 4057 L1920 4100L1920 4100 L1916 4100C1914 4100,1902 4066,1890 4025 C1877 3983,1861 3950,1855 3950 C1849 3950,1692 3990,1505 4040 C1319 4089,1157 4130,1144 4130 C1132 4130,1115 4121,1106 4111 C1097 4101,1089 4085,1089 4075 C1089 4066,1108 4015,1130 3962 C1152 3909,1168 3864,1165 3862 C1163 3860,1052 3842,918 3823 C709 3794,672 3786,657 3768 C647 3757,639 3738,639 3726 C639 3711,692 3652,799 3545 L959 3385 884 3309 C832 3255,810 3224,810 3207 C810 3194,819 3174,830 3164 C847 3149,881 3144,1065 3134 C1183 3128,1283 3120,1287 3116 C1290 3112,1182 2997,1046 2861 C813 2628,798 2611,801 2580 C803 2562,812 2541,822 2534 L840 2520" />
<path d="M3190 3950 L3185 3950C3182 3950,3180 3945,3180 3940 C3180 3934,3182 3930,3185 3930 C3187 3930,3190 3925,3190 3920 L3190 3910L3190 3910 L3189 3902C3189 3898,3192 3884,3195 3871 C3199 3852,3197 3848,3184 3853 C3175 3857,3157 3860,3144 3860 L3120 3860L3115 3865 L3107 3867 3102 3872 L3090 3870 L3087 3869C3086 3869,3042 3863,2989 3855 C2937 3847,2855 3827,2807 3809 C2760 3792,2696 3763,2665 3744 L2610 3710L2610 3710 L2605 3703C2602 3699,2600 3602,2600 3488 C2600 3373,2600 3277,2600 3275 L2600 3270L2600 3270 L2617 3285C2626 3293,2634 3300,2635 3300 C2636 3300,2639 3302,2643 3305 L2650 3310L2655 3315 L2660 3320 L2665 3326C2667 3330,2670 3334,2670 3336 C2670 3338,2672 3340,2675 3340 L2680 3340L2685 3345 L2690 3350 L2705 3360L2720 3370L2725 3375 L2730 3380 L2770 3400L2810 3420L2815 3425 2820 3430 L2820 3430 2825 3435 L2832 3437 2837 3442 L2840 3450 L2845 3450C2847 3450,2852 3450,2855 3450 L2860 3450L2860 3450 L2870 3455L2880 3460L2880 3460 L2880 3465C2880 3467,2882 3470,2885 3470 L2890 3470L2900 3470 L2925 3480L2950 3490L2955 3495 L2960 3500 L3050 3525L3140 3550L3145 3555 L3150 3560 L3190 3565L3230 3570L3235 3575 L3240 3580 L3272 3584C3290 3586,3306 3588,3307 3589 L3310 3590L3320 3590 L3330 3590 L3362 3594C3380 3597,3423 3601,3457 3604 L3520 3610L3520 3610 L3575 3610C3605 3610,3632 3610,3635 3610 C3637 3610,3660 3610,3685 3610 L3730 3610L3730 3610 L3736 3605C3740 3602,3745 3600,3748 3600 C3751 3600,3754 3597,3756 3595 L3760 3590L3765 3585 L3770 3580 L3775 3576C3777 3574,3780 3570,3780 3566 L3780 3560L3785 3555 L3790 3550 L3790 3540C3790 3534,3789 3522,3789 3512 C3789 3502,3730 3381,3659 3242 L3530 2990L3533 2990 3527 2982 L3525 2975 L3520 2970 L3520 2965C3520 2962,3522 2960,3525 2960 L3530 2960L3535 2955 L3540 2950 L3550 2940L3560 2930L3560 2930 L3575 2925L3590 2920L3600 2920 L3605 2920C3607 2920,3610 2917,3610 2915 L3610 2910L3610 2910 3615 2905 L3620 2900 L3630 2895L3640 2890L3650 2890 L3655 2890C3657 2890,3660 2887,3660 2885 L3660 2880L3660 2880 3665 2875 L3672 2872 3677 2867 L3685 2865 L3690 2860 L3700 2855L3710 2850L3715 2845 L3722 2842 3727 2837 L3735 2835 L3740 2830 L3750 2825L3760 2820L3770 2820 L3775 2820C3777 2820,3780 2817,3780 2815 L3780 2810L3780 2810 3785 2805 L3790 2800 L3800 2795L3810 2790L3820 2790 L3825 2790C3827 2790,3830 2787,3830 2785 L3830 2780L3830 2780 3835 2775 L3840 2770 L3852 2765C3859 2763,3866 2761,3869 2760 C3871 2760,3874 2757,3876 2755 L3880 2750L3885 2745 L3892 2742 3897 2737 L3905 2735 L3910 2730 L3920 2725L3930 2720L3940 2720 L3945 2720C3947 2720,3950 2717,3950 2715 L3950 2710L3950 2710 3955 2705 L3960 2700 L3970 2695L3980 2690L3990 2690 L3995 2690C3997 2690,4000 2687,4000 2685 L4000 2680L4000 2680 4005 2675 L4012 2672 4017 2667 L4025 2665 L4030 2660 L4040 2655L4050 2650L4055 2645 L4062 2642 4067 2637 L4075 2635 L4080 2630 L4085 2630C4087 2630,4090 2628,4090 2626 C4090 2624,4092 2620,4095 2616 L4100 2610L4100 2610 L4130 2600L4160 2590L4165 2585 L4170 2580 L4190 2570L4210 2560L4215 2555 L4222 2552 4227 2547 L4240 2550 L4240 2582C4240 2611,4214 2640,3992 2862 C3857 2998,3748 3112,3752 3115 C3756 3119,3856 3127,3974 3134 C4157 3144,4192 3149,4209 3164 C4220 3174,4230 3194,4230 3207 C4230 3224,4207 3255,4155 3309 L4080 3385 4240 3545 C4347 3652,4400 3711,4400 3726 C4400 3738,4392 3756,4382 3768 C4367 3785,4327 3793,4121 3823 C3987 3842,3876 3860,3873 3862 C3871 3865,3887 3909,3909 3960 C3931 4011,3950 4062,3950 4073 C3950 4084,3942 4101,3933 4111 C3924 4121,3905 4129,3890 4129 C3876 4129,3714 4089,3530 4040 C3345 3991,3193 3951,3192 3950 L3190 3950" />
</g>
<g id="layer102" fill="#512534" fill-rule="evenodd">
<path d="M1930 3910 L1930 3902C1930 3898,1928 3884,1925 3872 C1920 3852,1922 3850,1952 3856 C1970 3859,1992 3863,2002 3865 L2020 3870L2020 3870 L2143 3984C2212 4047,2300 4135,2339 4179 C2378 4224,2431 4288,2455 4322 C2480 4355,2505 4389,2510 4396 L2520 4410L2520 4410 L2520 4465C2520 4495,2520 4522,2520 4525 C2520 4527,2520 4550,2520 4575 L2520 4620L2520 4620 L2515 4620C2512 4620,2510 4609,2510 4596 C2510 4583,2494 4541,2475 4503 C2456 4465,2413 4399,2380 4355 C2347 4311,2271 4226,2212 4166 C2153 4106,2065 4024,2017 3983 L1930 3910" />
<path d="M2600 4410 L2610 4394C2616 4386,2647 4344,2679 4302 C2711 4259,2774 4186,2818 4138 C2862 4091,2944 4013,2999 3966 L3100 3880L3102 3872 3107 3867 L3115 3865 L3120 3860 L3144 3860C3157 3860,3175 3857,3184 3853 C3197 3848,3199 3852,3195 3871 C3192 3884,3189 3898,3189 3902 L3190 3910L3190 3910 L3102 3983C3054 4024,2966 4106,2907 4166 C2848 4226,2772 4311,2739 4355 C2706 4399,2663 4465,2644 4503 C2625 4541,2610 4583,2610 4596 C2610 4609,2607 4620,2605 4620 L2600 4620L2600 4620 L2600 4575C2600 4550,2600 4527,2600 4525 C2600 4522,2600 4495,2600 4465 L2600 4410" />
</g>
<g id="layer103" fill="#913102" fill-rule="evenodd">
<path d="M2520 4620 L2520 4575C2520 4550,2520 4527,2520 4525 C2520 4522,2520 4495,2520 4465 L2520 4410L2520 4410 L2520 4095C2520 3921,2520 3777,2520 3775 C2520 3772,2520 3754,2520 3735 L2520 3700L2520 3700 L2520 3545C2520 3459,2520 3386,2520 3382 C2520 3378,2518 3353,2515 3327 L2510 3280L2510 3280 L2510 3285C2510 3287,2507 3290,2505 3290 L2500 3290L2500 3290 L2500 3295C2500 3297,2497 3300,2495 3300 L2490 3300L2490 3300 L2490 3305C2490 3307,2487 3310,2485 3310 L2480 3310L2480 3310 L2480 3315C2480 3317,2477 3320,2475 3320 L2470 3320L2470 3320 L2470 3315C2470 3312,2472 3310,2475 3310 L2480 3310L2480 3310 L2480 3305C2480 3302,2482 3300,2485 3300 L2490 3300L2490 3300 L2490 3295C2490 3292,2492 3290,2495 3290 L2500 3290L2500 3290 L2500 3285C2500 3282,2502 3280,2505 3280 L2510 3280L2510 3280 L2511 3277C2512 3276,2514 3261,2517 3244 C2520 3217,2501 3184,2400 3031 C2332 2929,2274 2852,2267 2854 C2260 2856,2108 2891,1930 2930 C1751 2970,1601 3004,1597 3006 L1590 3010L1590 3010 L1585 3002C1583 2997,1585 2988,1589 2980 C1594 2972,1591 2959,1583 2948 L1570 2930L1570 2930 L1572 2929C1573 2929,1717 2896,1892 2857 C2067 2817,2210 2780,2210 2775 C2210 2769,2167 2717,2116 2659 C2065 2602,2014 2547,2004 2538 C1986 2523,1956 2527,1555 2595 C1318 2636,1123 2669,1122 2669 L1120 2670L1107 2672 1102 2667 L1095 2665 L1090 2660 L1080 2655L1070 2650L1065 2645 L1060 2640 L1047 2635C1040 2633,1033 2631,1032 2630 L1030 2630L1030 2630 L1030 2625C1030 2622,1027 2620,1025 2620 L1020 2620L1020 2620 L1020 2615C1020 2612,1020 2608,1020 2606 C1020 2604,1217 2570,1459 2529 C1701 2488,1899 2451,1899 2447 C1899 2444,1858 2406,1807 2364 C1756 2323,1658 2250,1589 2204 C1520 2157,1458 2119,1452 2120 C1445 2120,1350 2155,1241 2199 C1115 2249,1034 2276,1021 2273 C1009 2270,1000 2263,1000 2258 L1000 2250L1000 2250 L1005 2250C1009 2250,1018 2246,1025 2242 C1037 2235,1037 2231,1024 2212 L1010 2190L1010 2190 L1015 2190C1017 2190,1026 2190,1035 2190 C1043 2190,1120 2161,1205 2127 C1342 2072,1358 2063,1342 2051 C1332 2044,1221 1987,1095 1925 C968 1862,821 1793,767 1770 L670 1730L670 1730 L664 1730C661 1730,655 1718,649 1703 C643 1689,641 1668,644 1658 L650 1640L650 1640 L660 1640C666 1640,751 1675,850 1719 C948 1763,1104 1836,1195 1882 C1286 1928,1359 1961,1356 1955 C1354 1949,1329 1872,1301 1783 C1251 1627,1249 1622,1217 1612 C1199 1606,1183 1601,1182 1601 L1180 1600L1180 1600 L1180 1595C1180 1592,1202 1590,1230 1590 C1273 1590,1280 1587,1280 1570 L1280 1550L1280 1550 L1297 1559C1308 1565,1340 1647,1390 1796 L1466 2025 1608 2120 C1686 2172,1790 2247,1840 2287 C1889 2327,1929 2354,1929 2347 C1929 2340,1901 2188,1865 2008 C1830 1828,1796 1672,1790 1661 C1784 1650,1780 1638,1780 1635 L1780 1630L1780 1630 L1786 1630C1790 1630,1804 1639,1816 1651 L1840 1673 1840 1626 L1840 1580L1840 1580 L1846 1592C1849 1599,1857 1614,1863 1625 C1869 1636,1910 1828,1955 2052 L2037 2460 2121 2547 C2168 2595,2240 2677,2282 2730 C2323 2782,2394 2878,2438 2944 L2520 3063 2520 2627 L2520 2191 2467 2161 C2438 2145,2377 2098,2332 2058 C2286 2017,2214 1946,2173 1900 C2131 1853,2071 1781,2040 1740 C2009 1698,1965 1637,1942 1604 C1920 1570,1887 1517,1870 1486 L1840 1430L1840 1430 L1840 1385C1840 1360,1840 1337,1840 1335 C1840 1332,1840 1307,1840 1280 L1840 1230L1840 1230 L1846 1230C1850 1230,1858 1234,1865 1240 C1871 1245,1880 1272,1884 1300 C1887 1329,1909 1387,1935 1437 C1960 1485,2009 1565,2044 1614 C2079 1663,2136 1736,2170 1776 C2204 1816,2282 1898,2344 1958 C2405 2018,2470 2074,2487 2083 L2520 2100 2520 1861 L2520 1622 2489 1609 C2472 1602,2433 1569,2402 1534 C2370 1500,2322 1435,2295 1389 C2269 1344,2231 1270,2212 1226 C2193 1181,2167 1107,2154 1061 C2140 1015,2127 946,2124 908 L2120 840L2120 840 L2124 840C2126 840,2131 844,2135 850 C2138 855,2147 860,2154 860 C2161 860,2172 846,2178 830 L2190 800L2190 800 L2195 800C2197 800,2200 824,2200 854 C2200 884,2206 940,2214 979 C2223 1018,2245 1089,2263 1138 C2282 1186,2310 1250,2325 1280 C2340 1310,2372 1364,2395 1400 C2419 1435,2457 1482,2479 1504 L2520 1544 2520 847 L2520 150L2520 150 L2520 144C2520 140,2527 125,2537 109 C2546 93,2556 80,2560 80 C2563 79,2573 93,2582 109 C2592 125,2600 140,2600 144 L2600 150L2600 150 L2600 847L2600 1544 2640 1504 C2662 1482,2702 1433,2727 1395 C2752 1356,2792 1284,2815 1235 C2838 1185,2869 1106,2884 1060 C2898 1014,2913 942,2916 900 C2918 858,2920 819,2920 812 L2920 800L2920 800 L2941 837L2962 874 2978 852 C2987 840,2996 830,2997 830 L3000 830L3000 830 L3000 874C3000 898,2995 942,2989 972 C2983 1001,2966 1061,2952 1105 C2938 1149,2910 1221,2889 1265 C2869 1310,2829 1382,2801 1427 C2773 1471,2726 1529,2696 1557 C2667 1584,2634 1610,2621 1614 C2600 1621,2600 1622,2600 1860 L2600 2100 2630 2084 C2647 2075,2711 2020,2773 1960 C2834 1900,2913 1818,2948 1777 C2983 1736,3040 1663,3075 1614 C3110 1565,3159 1485,3184 1437 C3210 1387,3232 1329,3235 1300 C3239 1272,3248 1245,3254 1240 C3261 1234,3269 1230,3273 1230 L3280 1230L3280 1230 L3280 1280C3280 1307,3280 1332,3280 1335 C3280 1337,3280 1360,3280 1385 L3280 1430L3280 1430 L3239 1500C3217 1540,3185 1592,3167 1618 C3150 1644,3110 1698,3079 1740 C3048 1781,2988 1853,2946 1900 C2904 1946,2833 2017,2787 2058 C2742 2098,2681 2145,2652 2161 L2600 2191 2600 2627 L2600 3063 2683 2941 C2728 2874,2797 2780,2835 2732 C2873 2684,2944 2603,2994 2552 L3083 2459 3161 2062 C3204 1843,3247 1647,3256 1625 C3266 1603,3275 1583,3276 1582 L3280 1580L3280 1580 L3280 1627L3280 1674 3307 1647 C3322 1632,3335 1620,3337 1620 L3340 1620L3340 1620 L3340 1627C3340 1631,3335 1646,3329 1659 C3323 1673,3289 1830,3254 2009 C3219 2188,3190 2340,3190 2347 C3190 2354,3230 2327,3279 2287 C3329 2247,3433 2172,3511 2120 L3653 2025 3729 1797 C3770 1672,3812 1563,3822 1555 L3840 1540L3840 1540 L3840 1565C3840 1583,3845 1590,3860 1590 C3871 1590,3882 1590,3885 1590 L3890 1590L3890 1590 L3880 1607C3874 1617,3848 1692,3821 1775 C3794 1857,3769 1934,3766 1945 C3761 1960,3804 1943,3972 1859 C4089 1802,4245 1728,4320 1697 C4394 1665,4458 1639,4462 1639 L4470 1640L4470 1640 L4475 1658C4478 1668,4476 1689,4470 1703 C4464 1718,4458 1730,4455 1730 L4450 1730L4450 1730 L4352 1770C4298 1793,4151 1862,4025 1924 C3898 1987,3787 2044,3777 2051 C3761 2063,3776 2072,3914 2127 C3999 2161,4076 2190,4084 2190 C4093 2190,4102 2190,4105 2190 L4110 2190L4110 2190 L4098 2208C4092 2219,4087 2231,4087 2236 C4088 2241,4099 2247,4111 2251 C4124 2255,4136 2258,4137 2259 L4140 2260L4140 2260 L4110 2270C4084 2279,4056 2270,3880 2200 C3770 2156,3674 2120,3668 2120 C3661 2120,3599 2157,3530 2204 C3461 2250,3363 2322,3312 2364 C3261 2406,3220 2445,3220 2450 C3220 2455,3225 2459,3232 2459 C3239 2459,3437 2491,3672 2531 C3907 2571,4100 2604,4100 2606 L4100 2610L4100 2610 L4095 2616C4092 2620,4090 2624,4090 2626 C4090 2628,4087 2630,4085 2630 L4080 2630L4075 2635 L4067 2637 4062 2642 L4055 2645 L4050 2650 L4040 2655L4030 2660L4025 2665 L4017 2667 4012 2672 L4000 2670 L3997 2669C3996 2669,3801 2635,3565 2594 L3135 2520 3070 2588 C3034 2625,2980 2683,2951 2717 C2915 2759,2902 2781,2911 2784 C2918 2787,3066 2820,3240 2859 C3413 2898,3556 2929,3557 2929 L3560 2930L3560 2930 L3550 2940L3540 2950L3535 2955 L3530 2960 L3525 2960C3522 2960,3520 2962,3520 2965 L3520 2970L3525 2975 3527 2982 L3527 2982 3533 2990 L3530 3000 L3267 2944C3123 2914,2968 2880,2923 2870 L2841 2852 2767 2958 C2726 3017,2672 3099,2646 3140 C2621 3182,2600 3226,2600 3238 C2600 3250,2600 3262,2600 3265 L2600 3270L2600 3270 L2600 3275C2600 3277,2600 3373,2600 3488 C2600 3602,2602 3699,2605 3703 L2610 3710L2610 3710 L2604 3737C2601 3752,2599 3768,2599 3772 C2599 3776,2600 3921,2600 4095 L2600 4410L2600 4410 L2600 4465C2600 4495,2600 4522,2600 4525 C2600 4527,2600 4550,2600 4575 L2600 4620L2600 4620 L2600 4627C2600 4631,2599 4735,2597 4858 C2595 5059,2593 5083,2577 5093 C2564 5101,2555 5101,2542 5093 C2526 5083,2524 5059,2522 4851 L2520 4620" />
<path d="M760 2350 L760 2358C760 2362,757 2368,755 2371 C752 2374,750 2379,750 2383 L750 2390L750 2390 L745 2390C742 2390,740 2401,740 2415 C740 2428,742 2440,745 2440 L750 2440L750 2440 L750 2446C750 2450,752 2454,755 2456 L760 2460L760 2460 L760 2465C760 2467,762 2470,765 2470 L770 2470L770 2470 L770 2475C770 2477,772 2480,775 2480 L780 2480L780 2480 L780 2485C780 2487,782 2490,785 2490 L790 2490L790 2490 L790 2495C790 2497,792 2500,795 2500 L800 2500L800 2496 807 2502 L815 2505 822 2507 L820 2510 L825 2510C827 2510,830 2512,830 2515 L830 2520L835 2515 840 2523 L840 2530 L833 2530C829 2530,820 2535,813 2541 C806 2547,800 2566,800 2583 C799 2611,829 2644,1047 2862 C1182 2998,1290 3112,1287 3116 C1283 3120,1183 3128,1065 3134 C881 3144,847 3149,830 3164 C819 3174,810 3194,810 3207 C810 3224,832 3255,884 3309 L959 3385 799 3545 C692 3652,639 3711,639 3726 C639 3738,647 3757,657 3768 C672 3786,709 3794,918 3823 C1052 3842,1163 3860,1165 3862 C1168 3864,1152 3909,1130 3962 C1108 4015,1089 4066,1089 4075 C1089 4085,1097 4101,1106 4111 C1115 4121,1132 4130,1144 4130 C1157 4130,1319 4089,1505 4040 C1692 3990,1849 3950,1855 3950 C1861 3950,1877 3983,1890 4025 C1902 4066,1914 4100,1916 4100 L1920 4100L1920 4100 L1919 4102C1919 4103,1906 4143,1891 4190 C1876 4236,1846 4308,1826 4349 C1805 4390,1766 4455,1739 4494 C1712 4533,1656 4602,1614 4647 C1572 4692,1527 4732,1515 4735 C1502 4739,1482 4736,1471 4730 C1456 4723,1432 4663,1379 4502 C1339 4382,1304 4281,1301 4277 C1297 4273,1142 4311,956 4360 C770 4409,605 4450,590 4450 C575 4450,555 4441,546 4431 C537 4421,529 4406,529 4398 C529 4389,548 4339,570 4285 C593 4232,610 4186,608 4184 C606 4183,495 4165,361 4146 C180 4120,113 4107,99 4094 C88 4084,80 4065,80 4051 C80 4032,117 3988,239 3865 L399 3705 324 3628 C281 3584,250 3543,250 3532 C250 3521,257 3502,267 3490 C283 3471,300 3468,511 3457 L738 3445 489 3190 C300 2996,240 2928,240 2910 C240 2896,244 2878,249 2870 C254 2862,283 2853,316 2848 C348 2844,398 2841,427 2840 C456 2840,479 2836,479 2832 C479 2828,432 2683,375 2510 C319 2336,273 2193,274 2192 C275 2191,385 2226,518 2270 L760 2350" />
<path d="M3190 3950 L3192 3950C3193 3951,3345 3991,3530 4040 C3714 4089,3876 4129,3890 4129 C3905 4129,3924 4121,3933 4111 C3942 4101,3950 4084,3950 4073 C3950 4062,3931 4011,3909 3960 C3887 3909,3871 3865,3873 3862 C3876 3860,3987 3842,4121 3823 C4327 3793,4367 3785,4382 3768 C4392 3756,4400 3738,4400 3726 C4400 3711,4347 3652,4240 3545 L4080 3385 4155 3309 C4207 3255,4230 3224,4230 3207 C4230 3194,4220 3174,4209 3164 C4192 3149,4157 3144,3974 3134 C3856 3127,3756 3119,3752 3115 C3748 3112,3857 2998,3992 2862 C4214 2640,4240 2611,4240 2582 L4240 2550L4240 2540 L4270 2525L4300 2510L4305 2505 L4310 2500 L4315 2500C4318 2500,4334 2486,4350 2470 C4367 2454,4380 2430,4380 2416 C4380 2402,4377 2384,4373 2375 C4370 2367,4366 2360,4363 2360 L4360 2360L4360 2360 L4360 2356C4360 2354,4468 2315,4600 2271 C4732 2226,4842 2189,4844 2189 C4846 2189,4801 2332,4744 2507 C4687 2682,4640 2828,4640 2832 C4640 2836,4665 2840,4697 2840 C4729 2841,4779 2844,4808 2849 C4837 2853,4865 2863,4870 2870 C4875 2878,4879 2895,4879 2908 C4879 2925,4814 2998,4635 3182 C4500 3320,4390 3436,4390 3439 C4390 3443,4489 3451,4610 3457 C4795 3466,4835 3471,4850 3485 C4861 3495,4869 3514,4870 3527 C4870 3545,4847 3575,4795 3628 L4720 3705 4880 3865 C5002 3988,5040 4032,5040 4051 C5040 4065,5031 4084,5021 4093 C5008 4105,4934 4119,4760 4144 C4626 4164,4514 4181,4512 4184 C4510 4186,4526 4230,4549 4283 C4571 4336,4590 4386,4590 4396 C4590 4405,4582 4421,4573 4431 C4564 4441,4545 4449,4530 4449 C4516 4449,4352 4409,4165 4360 C3978 4310,3822 4273,3818 4277 C3815 4281,3782 4377,3745 4490 C3696 4639,3671 4701,3653 4717 C3639 4729,3621 4740,3611 4740 C3602 4740,3559 4702,3516 4657 C3472 4612,3415 4543,3387 4505 C3360 4466,3318 4396,3295 4350 C3271 4303,3240 4227,3226 4182 C3211 4136,3197 4068,3194 4032 C3191 3995,3189 3961,3189 3957 L3190 3950" />
</g>
<g id="layer104" fill="#b73d05" fill-rule="evenodd">
<path d="M1590 3010 L1597 3006C1601 3004,1751 2970,1930 2930 C2108 2891,2260 2856,2267 2854 C2274 2852,2332 2929,2400 3031 C2501 3184,2520 3217,2517 3244 C2514 3261,2512 3276,2511 3277 L2510 3280L2510 3280 L2505 3280C2502 3280,2500 3282,2500 3285 L2500 3290L2500 3290 L2495 3290C2492 3290,2490 3292,2490 3295 L2490 3300L2490 3300 L2485 3300C2482 3300,2480 3302,2480 3305 L2480 3310L2480 3310 L2475 3310C2472 3310,2470 3312,2470 3315 L2470 3320L2470 3320 L2455 3330L2440 3340L2435 3345 L2430 3350 L2415 3360L2400 3370L2395 3375 L2390 3380 L2345 3405L2300 3430L2295 3435 L2287 3437 2282 3442 L2275 3445 L2267 3447 2262 3452 L2255 3455 L2247 3457 2242 3462 L2235 3465 L2230 3470 L2200 3480L2170 3490L2165 3495 L2160 3500 L2155 3500C2152 3500,2147 3500,2145 3500 L2140 3500L2135 3505 L2130 3510 L2090 3520L2050 3530L2045 3535 L2040 3540 L2035 3540C2032 3540,2027 3540,2025 3540 L2020 3540L2015 3545 L2010 3550 L1995 3550L1980 3550L1975 3555 L1970 3560 L1955 3560L1940 3560L1935 3565 L1930 3570 L1910 3570L1890 3570L1885 3575 L1880 3580 L1860 3580L1840 3580L1835 3585 L1830 3590 L1795 3590L1760 3590L1755 3595 L1750 3600 L1705 3600L1660 3600L1650 3600 1645 3605 L1640 3610 L1635 3610C1632 3610,1573 3610,1504 3610 C1384 3610,1377 3608,1354 3585 C1339 3570,1330 3549,1330 3530 C1330 3511,1376 3407,1452 3255 C1519 3120,1578 3010,1582 3010 L1590 3010" />
<path d="M3395 3595 L3395 3595 L3390 3600 L3365 3595C3352 3592,3338 3590,3335 3590 L3330 3590L3330 3580 L3325 3580C3322 3580,3317 3580,3315 3580 L3310 3580L3310 3590 L3302 3589C3298 3588,3290 3586,3285 3584 C3279 3581,3271 3580,3267 3580 L3260 3580L3255 3575 3255 3575 L3247 3577 3242 3577 L3235 3575 L3230 3570 L3225 3570C3222 3570,3217 3570,3215 3570 L3210 3570L3205 3565 3205 3565 L3200 3570 L3187 3565C3180 3563,3173 3561,3172 3560 L3170 3560L3165 3555 3165 3555 L3157 3557 3152 3557 L3145 3555 L3140 3550 L3129 3550C3123 3550,3114 3547,3110 3545 C3105 3542,3099 3540,3095 3540 L3090 3540L3085 3535 3085 3535 L3080 3540 L3073 3535C3069 3532,3065 3530,3063 3530 L3060 3530L3055 3525 3055 3525 L3050 3530 L3043 3525C3039 3522,3035 3520,3033 3520 L3030 3520L3025 3515 3025 3515 L3020 3520 L3013 3515C3009 3512,3005 3510,3003 3510 L3000 3510L2995 3505 2995 3505 L2990 3510 L2980 3505C2975 3502,2969 3500,2965 3500 L2960 3500L2955 3495 2950 3490 L2950 3490 L2950 3485C2950 3482,2947 3480,2945 3480 L2940 3480L2940 3490 L2920 3480L2900 3470L2900 3460 L2895 3460C2892 3460,2887 3460,2885 3460 L2880 3460L2880 3460 L2876 3455C2874 3452,2870 3450,2866 3450 L2860 3450L2860 3450 L2860 3445C2860 3442,2857 3440,2855 3440 L2850 3440L2837 3442 2832 3437 L2825 3435 2820 3430 L2820 3430 2815 3425 L2810 3420 L2770 3400L2730 3380L2725 3375 L2720 3370 L2705 3360L2690 3350L2685 3345 L2680 3340 L2675 3340C2672 3340,2670 3338,2670 3336 C2670 3334,2667 3330,2665 3326 L2660 3320L2655 3315 L2650 3310 L2643 3305C2639 3302,2636 3300,2635 3300 C2634 3300,2626 3293,2617 3285 L2600 3270L2600 3270 L2600 3265C2600 3262,2600 3250,2600 3238 C2600 3226,2621 3182,2646 3140 C2672 3099,2726 3017,2767 2958 L2841 2852 2883 2861 C2906 2866,3055 2900,3213 2935 C3372 2971,3508 2998,3516 2995 L3530 2990L3530 2990 L3660 3245L3790 3500L3785 3505 3785 3505 L3790 3510 L3790 3530L3790 3550L3785 3555 L3780 3560 L3780 3566C3780 3570,3777 3574,3775 3576 L3770 3580L3765 3585 L3760 3590 L3756 3595C3754 3597,3751 3600,3748 3600 C3745 3600,3740 3602,3736 3605 L3730 3610L3730 3610 L3730 3605C3730 3602,3682 3600,3625 3600 C3567 3600,3520 3602,3520 3605 L3520 3610L3520 3610 L3502 3609C3492 3609,3469 3607,3450 3604 C3430 3601,3411 3599,3407 3599 L3400 3600" />
<path d="M1840 1580 L1840 1505L1840 1430L1840 1430 L1870 1486C1887 1517,1920 1570,1942 1604 C1965 1637,2009 1698,2040 1740 C2071 1781,2131 1853,2173 1900 C2214 1946,2286 2017,2332 2058 C2377 2098,2438 2145,2467 2161 L2520 2191 2520 2627 L2520 3063 2438 2944 C2394 2878,2323 2782,2282 2730 C2240 2677,2168 2595,2121 2547 L2037 2460 1955 2052 C1910 1828,1869 1636,1863 1625 C1857 1614,1849 1599,1846 1592 L1840 1580" />
<path d="M1515 2915 L1510 2910 L1510 2910 1505 2905 L1500 2900 L1487 2895C1480 2893,1473 2891,1472 2890 L1470 2890L1465 2885 1460 2880 L1460 2880 1455 2875 L1450 2870 L1437 2865C1430 2863,1423 2861,1420 2860 C1418 2860,1415 2857,1413 2855 L1410 2850L1405 2845 1400 2840 L1390 2840 L1370 2830L1350 2820L1345 2815 1340 2810 L1340 2810 1335 2805 L1330 2800 L1317 2795C1310 2793,1303 2791,1302 2790 L1300 2790L1295 2785 1290 2780 L1290 2780 1285 2775 L1280 2770 L1267 2765C1260 2763,1253 2761,1252 2760 L1250 2760L1245 2755 1240 2750 L1240 2750 1235 2745 L1230 2740 L1217 2735C1210 2733,1203 2731,1200 2730 C1198 2730,1195 2727,1193 2725 L1190 2720L1190 2710 L1185 2710C1182 2710,1177 2710,1175 2710 L1170 2710L1170 2710 1165 2705 L1160 2700 L1147 2695C1140 2693,1133 2691,1130 2690 C1128 2690,1125 2687,1123 2685 L1120 2680L1120 2670 L1122 2669C1123 2669,1318 2636,1555 2595 C1956 2527,1986 2523,2004 2538 C2014 2547,2065 2602,2116 2659 C2167 2717,2210 2769,2210 2775 C2210 2780,2067 2817,1892 2857 C1717 2896,1573 2929,1572 2929 L1570 2930L1570 2930 L1565 2930C1562 2930,1556 2930,1552 2930 C1548 2930,1539 2927,1532 2925 L1520 2920" />
<path d="M4000 2680 L3995 2680C3992 2680,3987 2680,3985 2680 L3980 2680L3980 2690 L3970 2695L3960 2700L3955 2705 3950 2710 L3950 2710 L3945 2710C3942 2710,3937 2710,3935 2710 L3930 2710L3930 2720 L3920 2725L3910 2730L3905 2735 L3897 2737 3892 2742 L3885 2745 L3880 2750 L3880 2755C3880 2757,3877 2760,3875 2760 L3870 2760L3865 2755 3865 2755 L3860 2760 L3850 2765L3840 2770L3835 2775 3830 2780 L3830 2780 L3825 2780C3822 2780,3817 2780,3815 2780 L3810 2780L3810 2790 L3800 2795L3790 2800L3785 2805 3780 2810 L3780 2810 L3775 2810C3772 2810,3767 2810,3765 2810 L3760 2810L3760 2820 L3750 2825L3740 2830L3735 2835 L3727 2837 3722 2842 L3715 2845 L3710 2850 L3710 2855C3710 2857,3707 2860,3705 2860 L3700 2860L3700 2850 L3695 2850C3692 2850,3690 2852,3690 2855 L3690 2860L3690 2860 3685 2865 L3677 2867 3672 2872 L3665 2875 3660 2880 L3660 2880 L3655 2880C3652 2880,3647 2880,3645 2880 L3640 2880L3640 2890 L3630 2895L3620 2900L3615 2905 3610 2910 L3610 2910 L3605 2910C3602 2910,3597 2910,3595 2910 L3590 2910L3590 2920 L3575 2925L3560 2930L3560 2930 L3557 2929C3556 2929,3413 2898,3240 2859 C3066 2820,2918 2787,2911 2784 C2902 2781,2915 2759,2951 2717 C2980 2683,3034 2625,3070 2588 L3135 2520 3565 2594 C3801 2635,3996 2669,3997 2669 C3998 2669,4000 2672,4000 2675 L4000 2680" />
<path d="M1020 2620 L995 2605L970 2590L970 2580 L965 2580C962 2580,957 2580,955 2580 L950 2580L950 2580 945 2575 L940 2570 L930 2565L920 2560L920 2550 L915 2550C912 2550,907 2550,905 2550 L900 2550L900 2550 895 2545 L890 2540 L880 2535L870 2530L865 2525 865 2525 L860 2530 L855 2530C852 2530,850 2527,850 2525 L850 2520L850 2520 L846 2515C844 2512,840 2510,836 2510 L830 2510L830 2510 L830 2506C830 2504,827 2500,823 2496 C819 2493,812 2490,808 2490 C803 2490,800 2492,800 2495 L800 2500L800 2500 L795 2500C792 2500,790 2497,790 2495 L790 2490L790 2490 L796 2485C800 2482,800 2480,796 2480 C793 2480,787 2480,785 2480 L780 2480L780 2480 L780 2475C780 2472,777 2470,775 2470 L770 2470L770 2470 L770 2465C770 2462,767 2460,765 2460 L760 2460L760 2460 L755 2450L750 2440L750 2440 L750 2425C750 2416,750 2407,750 2405 C750 2402,750 2397,750 2395 L750 2390L750 2390 L750 2383C750 2379,752 2374,755 2371 C757 2368,760 2362,760 2358 L760 2350L760 2350 L880 2300L1000 2250L1000 2250 L1000 2258C1000 2263,1009 2270,1021 2273 C1034 2276,1115 2249,1241 2199 C1350 2155,1445 2120,1452 2120 C1458 2119,1520 2157,1589 2204 C1658 2250,1756 2323,1807 2364 C1858 2406,1899 2444,1899 2447 C1899 2451,1701 2488,1459 2529 C1217 2570,1020 2604,1020 2606 C1020 2608,1020 2612,1020 2615 L1020 2620L1020 2620 L1025 2620C1027 2620,1030 2622,1030 2625 L1030 2630L1030 2630 L1025 2630C1022 2630,1020 2627,1020 2625 L1020 2620" />
</g>
<g id="layer105" fill="#d05805" fill-rule="evenodd">
<path d="M3520 3610 L3520 3605C3520 3602,3567 3600,3625 3600 C3682 3600,3730 3602,3730 3605 L3730 3610L3730 3610 L3685 3610C3660 3610,3637 3610,3635 3610 C3632 3610,3605 3610,3575 3610 L3520 3610" />
<path d="M3280 1430 L3280 1505L3280 1580L3280 1580 L3276 1582C3275 1583,3266 1603,3256 1625 C3247 1647,3204 1843,3161 2062 L3083 2459 2994 2552 C2944 2603,2873 2684,2835 2732 C2797 2780,2728 2874,2683 2941 L2600 3063 2600 2627 L2600 2191 2652 2161 C2681 2145,2742 2098,2787 2058 C2833 2017,2904 1946,2946 1900 C2988 1853,3048 1781,3079 1740 C3110 1698,3150 1644,3167 1618 C3185 1592,3217 1540,3239 1500 L3280 1430" />
<path d="M4100 2610 L4100 2606C4100 2604,3907 2571,3672 2531 C3437 2491,3239 2459,3232 2459 C3225 2459,3220 2455,3220 2450 C3220 2445,3261 2406,3312 2364 C3363 2322,3461 2250,3530 2204 C3599 2157,3661 2120,3668 2120 C3674 2120,3770 2156,3880 2200 C4056 2270,4084 2279,4110 2270 L4140 2260L4140 2260 L4227 2296C4275 2315,4321 2335,4330 2340 C4338 2344,4348 2350,4352 2354 L4360 2360L4360 2360 L4363 2360C4366 2360,4370 2367,4373 2375 C4377 2384,4380 2402,4380 2416 C4380 2430,4367 2454,4350 2470 C4334 2486,4318 2500,4315 2500 L4310 2500L4305 2505 L4300 2510 L4270 2525L4240 2540L4235 2545 L4227 2547 4222 2552 L4215 2555 L4210 2560 L4190 2570L4170 2580L4165 2585 L4160 2590 L4130 2600L4100 2610" />
<path d="M830 2510 L825 2510C822 2510,820 2507,820 2505 L820 2500L820 2500 L815 2500C812 2500,807 2500,805 2500 L800 2500L800 2500 L800 2495C800 2492,797 2490,795 2490 L790 2490L790 2490 L785 2490C782 2490,780 2487,780 2485 L780 2480L780 2480 L775 2480C772 2480,770 2477,770 2475 L770 2470L770 2470 L765 2470C762 2470,760 2467,760 2465 L760 2460L760 2460 L755 2456C752 2454,750 2450,750 2446 L750 2440L750 2440 L745 2440C742 2440,740 2428,740 2415 C740 2401,742 2390,745 2390 L750 2390L750 2390 L750 2395C750 2397,750 2402,750 2405 C750 2407,750 2416,750 2425 L750 2440L750 2440 L755 2450L760 2460L760 2460 L765 2460C767 2460,770 2462,770 2465 L770 2470L770 2470 L775 2470C777 2470,780 2472,780 2475 L780 2480L780 2480 L805 2495L830 2510L830 2510 L836 2510C840 2510,844 2512,846 2515 L850 2520L846 2520 840 2523 L835 2515 831 2510 " />
<path d="M3340 1620 L3340 1617C3340 1616,3426 1538,3530 1445 C3699 1292,3723 1274,3758 1271 C3791 1269,3801 1273,3818 1295 C3837 1319,3840 1335,3840 1431 L3840 1540L3840 1540 L3822 1555C3812 1563,3770 1672,3729 1797 L3653 2025 3511 2120 C3433 2172,3329 2247,3279 2287 C3230 2327,3190 2354,3190 2347 C3190 2340,3219 2188,3254 2009 C3289 1830,3323 1673,3329 1659 C3335 1646,3340 1631,3340 1627 L3340 1620" />
</g>
<g id="layer106" fill="#fe6b06" fill-rule="evenodd">
<path d="M1840 1230 L1840 1225C1840 1222,1840 1110,1840 977 C1840 770,1842 731,1856 711 C1864 699,1882 684,1895 679 C1909 674,1928 673,1939 677 C1949 681,1995 717,2039 758 C2083 798,2120 833,2120 835 L2120 840L2120 840 L2124 908C2127 946,2140 1015,2154 1061 C2167 1107,2193 1181,2212 1226 C2231 1270,2269 1344,2295 1389 C2322 1435,2370 1500,2402 1534 C2433 1569,2472 1602,2489 1609 L2520 1622 2520 1861 L2520 2100 2487 2083 C2470 2074,2405 2018,2344 1958 C2282 1898,2204 1816,2170 1776 C2136 1736,2079 1663,2044 1614 C2009 1565,1960 1485,1935 1437 C1909 1387,1887 1329,1884 1300 C1880 1272,1871 1245,1865 1240 C1858 1234,1850 1230,1846 1230 L1840 1230" />
<path d="M650 1640 L650 1637C650 1636,653 1630,657 1623 C661 1617,674 1607,686 1601 C701 1593,782 1590,928 1590 C1049 1590,1155 1592,1164 1595 L1180 1600L1180 1600 L1182 1601C1183 1601,1199 1606,1217 1612 C1249 1622,1251 1627,1301 1783 C1329 1872,1354 1949,1356 1955 C1359 1961,1286 1928,1195 1882 C1104 1836,948 1763,850 1719 C751 1675,666 1640,660 1640 L650 1640" />
<path d="M3890 1590 L4150 1590C4327 1590,4418 1593,4433 1601 C4445 1607,4458 1617,4462 1623 C4466 1630,4469 1636,4469 1637 L4470 1640L4470 1640 L4462 1639C4458 1639,4394 1665,4320 1697 C4245 1728,4089 1802,3972 1859 C3804 1943,3761 1960,3766 1945 C3769 1934,3794 1857,3821 1775 C3848 1692,3874 1617,3880 1607 L3890 1590" />
</g>
<g id="layer107" fill="#fe5e29" fill-rule="evenodd">
<path d="M1280 1550 L1280 1436C1279 1336,1282 1319,1300 1296 C1316 1276,1330 1270,1356 1270 C1382 1270,1402 1278,1428 1301 C1448 1318,1535 1397,1622 1476 C1709 1556,1780 1622,1780 1625 L1780 1630L1780 1630 L1780 1635C1780 1638,1784 1650,1790 1661 C1796 1672,1830 1828,1865 2008 C1901 2188,1929 2340,1929 2347 C1929 2354,1889 2327,1840 2287 C1790 2247,1686 2172,1608 2120 L1466 2025 1390 1796 C1340 1647,1308 1565,1297 1559 L1280 1550" />
<path d="M1010 2190 L1009 2187C1009 2186,1001 2177,991 2168 C982 2159,906 2056,822 1940 L670 1730L670 1730 L767 1770C821 1793,968 1862,1095 1925 C1221 1987,1332 2044,1342 2051 C1358 2063,1342 2072,1205 2127 C1120 2161,1043 2190,1035 2190 C1026 2190,1017 2190,1015 2190 L1010 2190" />
<path d="M4450 1730 L4314 1917C4240 2020,4163 2124,4144 2147 L4110 2190L4110 2190 L4105 2190C4102 2190,4093 2190,4084 2190 C4076 2190,3999 2161,3914 2127 C3776 2072,3761 2063,3777 2051 C3787 2044,3898 1987,4025 1924 C4151 1862,4298 1793,4352 1770 L4450 1730" />
</g>
<g id="layer108" fill="#fe8f3f" fill-rule="evenodd">
<path d="M3000 830 L3047 786C3073 763,3114 726,3138 706 C3173 675,3187 669,3208 674 C3223 677,3245 692,3257 705 C3279 730,3280 736,3280 975 C3280 1110,3280 1222,3280 1225 L3280 1230L3280 1230 L3273 1230C3269 1230,3261 1234,3254 1240 C3248 1245,3239 1272,3235 1300 C3232 1329,3210 1387,3184 1437 C3159 1485,3110 1565,3075 1614 C3040 1663,2983 1736,2948 1777 C2913 1818,2834 1900,2773 1960 C2711 2020,2647 2075,2630 2084 L2600 2100 2600 1860 C2600 1622,2600 1621,2621 1614 C2634 1610,2667 1584,2696 1557 C2726 1529,2773 1471,2801 1427 C2829 1382,2869 1310,2889 1265 C2910 1221,2938 1149,2952 1105 C2966 1061,2983 1001,2989 972 C2995 942,3000 898,3000 874 L3000 830" />
<path d="M2190 800 L2355 475L2520 150L2520 150 L2520 847L2520 1544 2479 1504 C2457 1482,2419 1435,2395 1400 C2372 1364,2340 1310,2325 1280 C2310 1250,2282 1186,2263 1138 C2245 1089,2223 1018,2214 979 C2206 940,2200 884,2200 854 C2200 824,2197 800,2195 800 L2190 800" />
</g>
<g id="layer109" fill="#feb45f" fill-rule="evenodd">
<path d="M2600 150 L2760 475L2920 800L2920 800 L2920 812C2920 819,2918 858,2916 900 C2913 942,2898 1014,2884 1060 C2869 1106,2838 1185,2815 1235 C2792 1284,2752 1356,2727 1395 C2702 1433,2662 1482,2640 1504 L2600 1544 2600 847 L2600 150" />
</g>

</svg>