<!DOCTYPE svg PUBLIC "-//W3C//DTD SVG 20010904//EN" "http://www.w3.org/TR/2001/REC-SVG-20010904/DTD/svg10.dtd">
<svg version="1.0" xmlns="http://www.w3.org/2000/svg" width="512px" height="512px" viewBox="0 0 5120 5120" preserveAspectRatio="xMidYMid meet">
<g id="layer101" fill="#000000" stroke="none">
</g>
<g id="layer102" fill="#638b3f" stroke="none">
<path d="M2495 5102 c-49 -23 -79 -55 -100 -104 -13 -33 -15 -140 -15 -859 0 -807 -3 -889 -31 -889 -4 0 -49 11 -101 24 -148 39 -245 49 -407 43 -337 -14 -633 -133 -918 -370 -230 -192 -362 -409 -448 -742 -44 -170 -55 -230 -115 -605 -94 -594 -159 -864 -299 -1243 -57 -155 -64 -211 -31 -264 101 -166 614 -93 1279 183 580 241 1090 571 1329 859 131 157 242 339 308 503 l9 23 40 -32 c52 -41 271 -185 355 -232 135 -76 403 -208 536 -265 131 -56 426 -162 504 -182 19 -5 72 -18 117 -29 306 -76 535 -65 593 31 32 52 25 95 -39 261 -131 339 -189 585 -296 1247 -57 355 -105 544 -180 707 -135 293 -428 551 -767 674 -346 127 -733 105 -1011 -57 -32 -19 -60 -34 -62 -34 -3 0 -6 278 -7 618 l-3 617 -24 38 c-50 80 -142 114 -216 79z"/>
</g>
<g id="layer103" fill="#87be57" stroke="none">
<path d="M3250 3919 c-163 -13 -316 -62 -462 -146 -43 -25 -78 -46 -78 -48 0 -4 106 -297 139 -386 l21 -56 123 -6 c219 -11 472 -74 678 -170 143 -67 249 -135 374 -242 l30 -26 -55 22 c-149 59 -203 79 -302 112 -213 72 -434 119 -625 133 -134 10 -134 11 -77 -93 52 -96 173 -294 219 -358 29 -40 29 -41 149 -62 299 -54 620 -181 906 -357 129 -79 129 -88 0 -27 -145 68 -286 118 -455 161 -129 32 -380 74 -417 68 -20 -3 -8 -20 98 -143 219 -254 466 -476 727 -654 42 -30 77 -56 77 -58 0 -8 -169 87 -270 150 -196 124 -360 252 -518 402 -55 52 -103 95 -106 95 -3 0 -6 -39 -6 -87 0 -189 40 -379 105 -501 43 -81 18 -61 -40 33 -94 151 -143 320 -152 525 l-6 135 -84 101 c-46 55 -117 147 -159 205 -41 57 -79 105 -84 107 -13 5 -39 -161 -51 -327 -8 -113 -8 -200 0 -333 7 -99 10 -183 7 -185 -7 -8 -63 148 -84 237 -50 209 -53 451 -7 675 l24 120 -178 312 -178 313 -20 -23 c-71 -76 -160 -262 -194 -402 -26 -110 -34 -269 -20 -385 7 -52 15 -103 17 -112 5 -16 -4 -18 -88 -18 -355 0 -821 -163 -1096 -384 -118 -94 -119 -101 -6 -55 121 49 329 122 444 154 207 58 531 105 621 90 l37 -6 -75 -132 c-108 -189 -241 -387 -266 -397 -12 -5 -53 -14 -92 -20 -239 -38 -574 -153 -815 -282 -116 -61 -307 -176 -315 -188 -3 -5 51 18 119 51 224 105 533 198 783 233 152 22 183 25 183 17 0 -18 -175 -218 -314 -360 -219 -222 -409 -383 -631 -531 -103 -69 -113 -79 -45 -45 287 143 600 364 873 617 l107 100 0 -109 c-1 -205 -36 -379 -107 -523 l-41 -85 33 40 c48 56 118 194 154 300 37 110 57 224 67 375 l7 115 84 100 c46 55 123 155 171 222 53 76 89 118 93 110 15 -26 40 -189 51 -330 9 -114 9 -192 0 -345 -7 -108 -15 -210 -19 -227 -9 -50 12 -17 46 70 105 268 129 592 66 910 l-27 141 34 69 35 68 55 -109 c96 -193 218 -357 366 -494 96 -89 133 -117 337 -253 294 -197 677 -385 1045 -511 90 -31 180 -61 200 -66 19 -5 72 -18 117 -29 306 -76 535 -65 593 31 32 52 25 95 -39 261 -131 339 -189 585 -296 1247 -94 582 -188 818 -419 1045 -301 296 -698 446 -1096 414z"/>
</g>


</svg>